<svg width="460" height="455" viewBox="0 0 460 455" fill="none" xmlns="http://www.w3.org/2000/svg">
<path d="M45.2364 257.257C57.7116 289.453 83.214 324.306 119.094 334.607C173.31 350.204 179.814 392.31 276.902 388.406C291.07 387.901 305.145 385.912 318.89 382.473C325.598 380.772 332.191 378.66 338.634 376.148C395.37 353.99 424.957 305.305 427.414 254.327C430.661 187.278 382.104 155.319 350.52 136.609C318.936 117.9 280.94 45.3908 185.444 48.503C170.873 48.9305 156.397 50.9756 142.287 54.6C110.152 62.9811 77.4916 81.5087 58.5028 108.599C57.086 110.638 55.7244 112.719 54.418 114.842C29.0168 156.338 28.2164 213.35 45.2364 257.257Z" fill="#625AA8"/>
<path opacity="0.8" d="M45.2364 257.257C57.7116 289.453 83.214 324.306 119.094 334.607C173.31 350.204 179.814 392.31 276.902 388.406C291.07 387.901 305.145 385.912 318.89 382.473C325.598 380.772 332.191 378.66 338.634 376.148C395.37 353.99 424.957 305.305 427.414 254.327C430.661 187.278 382.104 155.319 350.52 136.609C318.936 117.9 280.94 45.3908 185.444 48.503C170.873 48.9305 156.397 50.9756 142.287 54.6C110.152 62.9811 77.4916 81.5087 58.5028 108.599C57.086 110.638 55.7244 112.719 54.418 114.842C29.0168 156.338 28.2164 213.35 45.2364 257.257Z" fill="white"/>
<path d="M309.396 388.015L320.822 378.123C321.23 377.773 321.729 377.543 322.263 377.459C322.796 377.376 323.343 377.442 323.84 377.65L327.124 374.811C327.289 374.667 327.489 374.569 327.704 374.528C325.31 371.736 324.104 368.133 324.34 364.479C324.577 360.825 326.237 357.404 328.971 354.936C331.706 352.468 335.301 351.145 339.002 351.246C342.702 351.347 346.219 352.864 348.812 355.477C351.405 358.091 352.872 361.597 352.904 365.258C352.937 368.92 351.532 372.451 348.986 375.109C346.439 377.767 342.95 379.344 339.252 379.509C335.554 379.674 331.935 378.414 329.158 375.994C329.101 376.251 328.963 376.484 328.762 376.658L325.487 379.497C325.631 380.024 325.622 380.581 325.459 381.103C325.296 381.625 324.987 382.091 324.567 382.445L313.14 392.328C312.561 392.831 311.803 393.086 311.034 393.037C310.264 392.987 309.546 392.637 309.037 392.064C308.528 391.491 308.271 390.741 308.321 389.98C308.371 389.219 308.724 388.509 309.304 388.006L309.396 388.015ZM338.56 377.886C341.026 377.888 343.438 377.166 345.489 375.812C347.541 374.458 349.14 372.532 350.085 370.279C351.029 368.025 351.277 365.545 350.796 363.153C350.315 360.76 349.128 358.562 347.384 356.837C345.64 355.112 343.418 353.937 340.999 353.462C338.58 352.986 336.073 353.231 333.794 354.166C331.516 355.1 329.569 356.682 328.2 358.711C326.831 360.74 326.101 363.125 326.103 365.565C326.11 368.831 327.425 371.96 329.76 374.27C332.094 376.579 335.258 377.879 338.56 377.886Z" fill="#263238"/>
<path d="M234.812 44.0987C234.812 46.4829 236.33 48.4121 238.206 48.4121C240.083 48.4121 241.592 46.4829 241.592 44.0987C241.592 41.7145 240.074 39.7944 238.206 39.7944C236.339 39.7944 234.812 41.7236 234.812 44.0987Z" stroke="#263238" stroke-linecap="round" stroke-linejoin="round"/>
<path d="M231.334 58.2402H245.465L244.674 52.1796C244.572 51.4108 244.191 50.7048 243.602 50.1927C243.013 49.6806 242.256 49.3972 241.472 49.395H235.318C234.534 49.3972 233.777 49.6806 233.188 50.1927C232.599 50.7048 232.218 51.4108 232.116 52.1796L231.334 58.2402Z" stroke="#263238" stroke-linecap="round" stroke-linejoin="round"/>
<path d="M218.96 44.0987C218.96 46.4829 220.478 48.4121 222.346 48.4121C224.213 48.4121 225.74 46.4829 225.74 44.0987C225.74 41.7145 224.222 39.7944 222.346 39.7944C220.469 39.7944 218.96 41.7236 218.96 44.0987Z" stroke="#263238" stroke-linecap="round" stroke-linejoin="round"/>
<path d="M215.464 58.2402H229.595L228.813 52.1796C228.711 51.4108 228.33 50.7048 227.741 50.1927C227.152 49.6806 226.396 49.3972 225.612 49.395H219.457C218.673 49.3972 217.916 49.6806 217.327 50.1927C216.739 50.7048 216.358 51.4108 216.255 52.1796L215.464 58.2402Z" stroke="#263238" stroke-linecap="round" stroke-linejoin="round"/>
<path d="M203.09 44.0987C203.09 46.4829 204.608 48.4121 206.476 48.4121C208.343 48.4121 209.861 46.4829 209.861 44.0987C209.861 41.7145 208.352 39.7944 206.476 39.7944C204.599 39.7944 203.09 41.7236 203.09 44.0987Z" fill="#625AA8" stroke="#263238" stroke-linecap="round" stroke-linejoin="round"/>
<path d="M199.64 58.2403H213.734L212.943 52.1797C212.855 51.4042 212.483 50.6875 211.896 50.1658C211.309 49.6441 210.549 49.3537 209.76 49.3496H203.614C202.83 49.3498 202.072 49.6326 201.483 50.145C200.894 50.6575 200.513 51.3646 200.413 52.1342L199.64 58.2403Z" fill="#625AA8" stroke="#263238" stroke-linecap="round" stroke-linejoin="round"/>
<path d="M187.229 44.0987C187.229 46.4829 188.747 48.4121 190.615 48.4121C192.482 48.4121 194 46.4829 194 44.0987C194 41.7145 192.482 39.7944 190.615 39.7944C188.747 39.7944 187.229 41.7236 187.229 44.0987Z" stroke="#263238" stroke-linecap="round" stroke-linejoin="round"/>
<path d="M183.742 58.2402H197.874L197.082 52.1796C196.984 51.4092 196.604 50.701 196.014 50.1882C195.425 49.6754 194.666 49.3933 193.881 49.395H187.735C186.95 49.3933 186.191 49.6754 185.602 50.1882C185.012 50.701 184.632 51.4092 184.534 52.1796L183.742 58.2402Z" stroke="#263238" stroke-linecap="round" stroke-linejoin="round"/>
<path d="M171.359 44.0987C171.359 46.4829 172.877 48.4121 174.754 48.4121C176.631 48.4121 178.14 46.4829 178.14 44.0987C178.14 41.7145 176.622 39.7944 174.754 39.7944C172.886 39.7944 171.359 41.7236 171.359 44.0987Z" stroke="#263238" stroke-linecap="round" stroke-linejoin="round"/>
<path d="M167.882 58.2402H182.013L181.222 52.1796C181.119 51.4108 180.738 50.7048 180.149 50.1927C179.561 49.6806 178.804 49.3972 178.02 49.395H171.874C171.089 49.395 170.33 49.6774 169.739 50.1897C169.149 50.702 168.766 51.4092 168.664 52.1796L167.882 58.2402Z" stroke="#263238" stroke-linecap="round" stroke-linejoin="round"/>
<path d="M155.48 44.0987C155.48 46.4829 156.998 48.4121 158.866 48.4121C160.733 48.4121 162.26 46.4829 162.26 44.0987C162.26 41.7145 160.742 39.7944 158.866 39.7944C156.989 39.7944 155.48 41.7236 155.48 44.0987Z" stroke="#263238" stroke-linecap="round" stroke-linejoin="round"/>
<path d="M152.012 58.2402H166.152L165.361 52.1796C165.258 51.4108 164.877 50.7048 164.289 50.1927C163.7 49.6806 162.943 49.3972 162.159 49.395H156.004C155.22 49.3972 154.464 49.6806 153.875 50.1927C153.286 50.7048 152.905 51.4108 152.803 52.1796L152.012 58.2402Z" stroke="#263238" stroke-linecap="round" stroke-linejoin="round"/>
<path d="M348.22 68.3866C348.22 68.6232 348.22 68.8598 348.22 69.0964C348.315 73.7855 350.276 78.2481 353.679 81.5145C357.081 84.7809 361.65 86.587 366.391 86.5402C371.132 86.4935 375.663 84.5976 378.999 81.2648C382.335 77.932 384.207 73.4315 384.207 68.7415C384.207 64.0515 382.335 59.551 378.999 56.2182C375.663 52.8853 371.132 50.9895 366.391 50.9428C361.65 50.896 357.081 52.7021 353.679 55.9685C350.276 59.2348 348.315 63.6975 348.22 68.3866Z" fill="#625AA8" stroke="#263238" stroke-linecap="round" stroke-linejoin="round"/>
<path d="M366.316 50.4868V69.4057H348.266C348.266 69.3056 348.266 69.2055 348.266 69.0963C348.266 68.9871 348.266 68.6231 348.266 68.3865C348.266 63.6471 350.166 59.1011 353.55 55.7456C356.934 52.39 361.525 50.4989 366.316 50.4868Z" fill="white" stroke="#263238" stroke-linecap="round" stroke-linejoin="round"/>
<path d="M324.006 46.4101C324.006 48.7852 325.524 50.7144 327.391 50.7144C329.259 50.7144 330.777 48.7852 330.777 46.4101C330.777 44.035 329.268 42.0967 327.391 42.0967C325.514 42.0967 324.006 43.9895 324.006 46.4101Z" stroke="#263238" stroke-linecap="round" stroke-linejoin="round"/>
<path d="M320.519 60.4695H334.65L333.859 54.4089C333.762 53.6369 333.383 52.9265 332.793 52.4118C332.204 51.8971 331.444 51.6138 330.657 51.6152H324.512C323.726 51.6158 322.967 51.8998 322.377 52.4141C321.788 52.9284 321.409 53.6377 321.31 54.4089L320.519 60.4695Z" stroke="#263238" stroke-linecap="round" stroke-linejoin="round"/>
<path d="M391.92 81.172C391.92 83.5562 393.438 85.4854 395.306 85.4854C397.173 85.4854 398.691 83.5562 398.691 81.172C398.691 78.7878 397.182 76.8677 395.306 76.8677C393.429 76.8677 391.92 78.7969 391.92 81.172Z" stroke="#263238" stroke-linecap="round" stroke-linejoin="round"/>
<path d="M388.442 95.2681H402.574L401.782 89.1802C401.671 88.4197 401.286 87.7245 400.698 87.2228C400.11 86.7211 399.358 86.4467 398.581 86.4502H392.435C391.659 86.4486 390.908 86.7237 390.32 87.2251C389.732 87.7264 389.346 88.4205 389.234 89.1802L388.442 95.2681Z" stroke="#263238" stroke-linecap="round" stroke-linejoin="round"/>
<path d="M351.974 57.3754L347.585 53.0347H335.46" stroke="#263238" stroke-linecap="round" stroke-linejoin="round"/>
<path d="M368.478 86.4683V93.8757H384.735" stroke="#263238" stroke-linecap="round" stroke-linejoin="round"/>
<path d="M33.4695 255.938C33.4695 255.938 32.7151 248.485 35.7327 245.127C38.7503 241.769 43.2675 245.873 42.1727 250.35C41.0779 254.827 33.4695 255.938 33.4695 255.938Z" fill="#625AA8"/>
<path d="M42.1268 289.171C42.1268 289.171 40.9583 277.541 45.6503 272.318C50.3423 267.094 57.408 273.474 55.6416 280.453C53.8752 287.433 42.1268 289.171 42.1268 289.171Z" fill="#625AA8"/>
<path d="M44.6752 307.999C44.6752 307.999 45.9632 296.387 51.658 292.238C57.3528 288.088 62.9096 295.796 59.7264 302.248C56.5432 308.7 44.6752 307.999 44.6752 307.999Z" fill="#625AA8"/>
<path d="M32.7152 317.727C39.6612 319.046 45.8804 328.974 45.8804 328.974C45.8804 328.974 35.4752 334.662 29.7896 330.185C24.104 325.707 25.76 316.398 32.7152 317.727Z" fill="#625AA8"/>
<path d="M30.4152 335.217C40.3512 337.11 49.2476 351.315 49.2476 351.315C49.2476 351.315 34.3712 359.45 26.2476 353.053C18.124 346.656 20.4792 333.324 30.4152 335.217Z" fill="#625AA8"/>
<path d="M49.4592 349.868C49.2414 349.553 49.0447 349.225 48.8704 348.885C48.2377 347.613 47.8717 346.228 47.7942 344.813C47.7167 343.398 47.9294 341.981 48.4196 340.65C47.8952 336.336 47.426 332.842 47.0856 331.267C46.9384 330.594 46.7912 329.884 46.6532 329.138H46.1564C46.1564 329.138 46.2208 328.583 46.3772 327.673C45.5768 323.269 44.7764 317.736 43.8196 311.12C43.6908 310.21 43.562 309.3 43.424 308.39C40.7192 309.655 32.9452 312.767 28.3084 309.118C22.6228 304.641 24.288 295.332 31.234 296.651C36.2572 297.607 40.894 303.067 43.0836 306.015C42.4672 301.811 41.7956 297.297 41.0412 292.574C40.9124 291.774 40.7652 290.945 40.6088 290.081C37.9408 292.028 31.4088 296.114 26.3488 293.621C19.8444 290.418 19.5132 280.963 26.588 280.826C31.6848 280.735 37.3428 285.085 40.112 287.524C39.0908 282.546 37.6832 276.795 36.1744 271.144C34.5552 272.345 30.222 275.148 26.9008 273.51C22.724 271.453 22.5124 265.383 27.0572 265.32C30.36 265.256 34.0216 268.095 35.7788 269.651C34.5644 265.101 33.3132 260.706 32.1816 256.802C30.3416 258.113 26.404 260.369 23.3404 258.859C19.1728 256.802 18.9612 250.742 23.4968 250.669C26.3764 250.614 29.5412 252.78 31.464 254.363C29.808 248.703 28.5108 244.526 28.1704 243.443C26.4868 242.333 21.39 238.893 20.5436 236.81C20.2635 236.211 20.1095 235.562 20.0907 234.903C20.0719 234.243 20.1888 233.587 20.4343 232.973C20.6798 232.36 21.0487 231.802 21.5188 231.334C21.9888 230.866 22.55 230.498 23.1685 230.251C23.7869 230.004 24.4497 229.884 25.1164 229.898C25.7832 229.912 26.4401 230.06 27.0473 230.333C27.6545 230.606 28.1992 230.998 28.6485 231.486C29.0977 231.973 29.4421 232.546 29.6608 233.17C30.4796 235.153 29.394 240.75 28.9156 242.925L29.2192 242.834C29.2652 242.97 30.958 248.376 33.1384 255.883L33.2764 256.02L33.1936 256.083C34.3712 260.133 35.6868 264.774 36.9564 269.524C36.8828 267.267 37.0208 262.435 39.2932 259.923C42.3016 256.566 46.828 260.661 45.7332 265.138C44.7212 269.142 38.594 270.452 37.306 270.689C38.9988 277.059 40.5812 283.574 41.63 288.98L41.86 289.216L41.6944 289.353C41.906 290.436 42.09 291.482 42.2464 292.474C43.3228 299.199 44.2336 305.496 45.0064 311.056C45.7608 316.271 46.414 320.812 47.0488 324.652C47.9688 320.93 49.8088 315.925 53.1576 313.486C53.7626 312.994 54.4741 312.647 55.2369 312.472C55.9997 312.297 56.793 312.298 57.5552 312.476C57.2792 308.062 61.0512 304.231 64.9152 307.016C69.598 310.419 70.6652 319.965 70.6652 319.965C67.7443 320.092 64.8283 319.622 62.1 318.582C62.2736 320.245 61.9707 321.923 61.226 323.423C62.1231 323.481 62.9835 323.797 63.7008 324.333C64.8786 325.254 65.842 326.415 66.5252 327.737C67.5875 328.131 68.5488 328.752 69.3404 329.557C69.6716 327.354 70.0212 325.007 70.3984 322.35C71.0608 317.8 71.806 312.603 72.6892 307.071C72.818 306.261 72.9652 305.396 73.14 304.504L73.002 304.395L73.1952 304.204C74.06 299.754 75.3572 294.422 76.7464 289.171C75.6976 288.98 70.656 287.897 69.8188 284.621C68.8988 280.981 72.5788 277.577 75.0904 280.335C76.9304 282.41 77.0684 286.377 77.004 288.225C78.0528 284.33 79.1292 280.508 80.0952 277.177L80.0308 277.122L80.1412 277.013C81.9352 270.853 83.3336 266.403 83.3612 266.293L83.6096 266.366C83.2232 264.546 82.3308 259.996 83.0024 258.349C83.2017 257.863 83.4959 257.42 83.8683 257.046C84.2406 256.672 84.6838 256.375 85.1725 256.17C85.6611 255.966 86.1857 255.858 86.7163 255.854C87.2469 255.85 87.773 255.95 88.2648 256.147C88.7565 256.344 89.2041 256.635 89.5821 257.004C89.9601 257.372 90.2611 257.81 90.4679 258.294C90.6746 258.777 90.783 259.296 90.787 259.821C90.7911 260.345 90.6905 260.866 90.4912 261.352C89.8012 263.054 85.6152 265.902 84.226 266.812C83.95 267.722 82.8828 271.135 81.5212 275.794C83.1036 274.493 85.698 272.709 88.0716 272.755C91.7516 272.827 91.6228 277.814 88.1912 279.507C85.6796 280.744 82.4688 278.888 80.9324 277.814C80.0124 281.017 78.9728 284.657 77.9792 288.37C79.4236 287.096 82.432 284.73 85.146 284.812C88.826 284.885 88.6972 289.863 85.2748 291.555C82.5148 292.902 78.982 290.6 77.648 289.608C76.4152 294.276 75.2468 299.008 74.4188 303.094C76.6912 301.092 81.3464 297.516 85.5324 297.634C91.3376 297.743 91.0524 305.514 85.7256 308.153C81.5764 310.201 76.2036 306.834 74.0048 305.232C73.876 305.942 73.7564 306.634 73.6552 307.28C73.0296 311.175 72.4776 314.878 71.9716 318.336C73.7656 315.907 77.5836 311.42 81.7144 310.638C87.4184 309.555 88.7892 317.208 84.1156 320.884C80.2976 323.878 73.9128 321.33 71.6864 320.284C71.576 321.048 71.4656 321.813 71.3644 322.55C70.9412 325.489 70.5548 328.155 70.1868 330.567C71.0134 331.633 71.6369 332.838 72.0268 334.125C74.06 331.695 77.188 328.665 80.5368 327.991C86.25 326.909 87.6116 334.562 82.938 338.238C79.9756 340.577 75.4492 339.539 72.5328 338.475C72.4402 340.195 71.9958 341.879 71.2264 343.425C70.3743 345.099 69.1085 346.533 67.5464 347.593C66.8196 353.726 66.01 361.607 65.4764 366.976H74.2256V403.549H39.836V366.848H51.2072C50.7748 362.435 50.1308 356.056 49.4592 349.868ZM47.84 329.129C47.9688 329.793 48.0976 330.421 48.2264 331.022C48.53 332.414 48.9256 335.226 49.3672 338.757C49.889 337.912 50.6068 337.202 51.4612 336.686C52.3155 336.17 53.2818 335.863 54.28 335.79C54.9915 334.392 55.8356 333.063 56.8008 331.823C56.2798 330.439 56.1964 328.932 56.5616 327.5C53.7826 328.576 50.8244 329.129 47.84 329.129ZM66.424 348.157C66.0069 348.406 65.5837 348.633 65.1544 348.84C65.4948 350.032 65.7616 351.16 65.9732 352.143C66.1204 350.769 66.24 349.44 66.424 348.157ZM65.5868 355.665C62.882 355.665 55.2368 355.373 50.9496 351.551H50.8392C51.4464 357.212 52.0076 362.844 52.4032 366.848H64.4C64.7496 363.709 65.1544 359.696 65.5868 355.665Z" fill="#625AA8"/>
<path d="M72.7351 272.491C71.8151 268.851 75.4951 265.438 78.0067 268.204C80.5183 270.971 79.8467 277.086 79.8467 277.086C79.8467 277.086 73.6643 276.167 72.7351 272.491Z" fill="#625AA8"/>
<path d="M72.7443 304.395C72.7443 304.395 63.0843 302.967 61.6399 297.234C60.1955 291.501 65.9824 286.25 69.8464 290.545C73.7104 294.84 72.7443 304.395 72.7443 304.395Z" fill="#625AA8"/>
<path d="M82.3768 342.242C90.5372 340.686 92.4968 351.642 85.8084 356.902C79.12 362.162 66.8932 355.474 66.8932 355.474C66.8932 355.474 74.2072 343.798 82.3768 342.242Z" fill="#625AA8"/>
<path d="M60.0116 103.767H340.225C345.052 103.767 348.965 107.638 348.965 112.412V330.985C348.965 335.759 345.052 339.63 340.225 339.63H60.0116C55.1847 339.63 51.2716 335.759 51.2716 330.985V112.412C51.2716 107.638 55.1847 103.767 60.0116 103.767Z" fill="#263238" stroke="#263238" stroke-linecap="round" stroke-linejoin="round"/>
<path d="M163.751 171.262H252.982V403.421H163.751V171.262Z" fill="#B0B0B0" stroke="#263238" stroke-linecap="round" stroke-linejoin="round"/>
<path d="M163.751 168.295H252.982V350.013H163.751V168.295Z" fill="#263238" stroke="#263238" stroke-linecap="round" stroke-linejoin="round"/>
<path d="M139.003 394.521H277.73V403.421H139.003V394.521Z" fill="#B0B0B0" stroke="#263238" stroke-linecap="round" stroke-linejoin="round"/>
<path d="M67.5096 103.767H349.223C354.05 103.767 357.963 107.638 357.963 112.412V330.985C357.963 335.759 354.05 339.63 349.223 339.63H67.5096C62.6826 339.63 58.7696 335.759 58.7696 330.985V112.412C58.7696 107.638 62.6826 103.767 67.5096 103.767Z" fill="#B0B0B0" stroke="#263238" stroke-linecap="round" stroke-linejoin="round"/>
<path d="M68.8804 111.748H347.843V331.667H68.8804V111.748Z" fill="white" stroke="#263238" stroke-miterlimit="10"/>
<path d="M68.8804 321.093H347.843V331.658H68.8804V321.093Z" fill="#707070" stroke="#263238" stroke-linecap="round" stroke-linejoin="round"/>
<path d="M68.8804 111.748H347.843V127.108H68.8804V111.748Z" fill="#625AA8" stroke="#263238" stroke-linecap="round" stroke-linejoin="round"/>
<path d="M109.259 403.421H19.2464" stroke="#263238" stroke-linecap="round" stroke-linejoin="round"/>
<path d="M430.753 403.421H112.847" stroke="#263238" stroke-linecap="round" stroke-linejoin="round"/>
<path d="M378.773 403.421H412.27C412.27 403.421 412.39 402.32 412.482 400.636C412.721 396.551 412.822 389.089 410.725 386.213C407.772 382.154 394.045 389.38 394.045 389.38C394.045 389.38 387.78 395.022 384.284 396.505C380.788 397.988 379.785 396.987 379.279 399.472C379.196 399.89 379.123 400.282 379.058 400.636C378.896 401.557 378.801 402.487 378.773 403.421Z" fill="white" stroke="#263238" stroke-miterlimit="10"/>
<path d="M378.773 403.421H412.27C412.27 403.421 412.39 402.32 412.482 400.636H379.04C378.884 401.557 378.795 402.488 378.773 403.421Z" fill="white" stroke="#263238" stroke-miterlimit="10"/>
<path d="M409.133 266.521L407.1 318.391C407.1 318.391 413.54 332.796 411.755 344.025C409.97 355.255 412.335 391.827 412.335 391.827C412.335 391.827 411.755 393.557 404.772 393.557C397.79 393.557 396.621 388.661 396.621 388.661C396.621 388.661 390.798 323.004 390.181 318.108C389.565 313.213 382.904 268.004 382.904 268.004L409.133 266.521Z" fill="#263238" stroke="#263238" stroke-miterlimit="10"/>
<path d="M369.748 403.421H403.245C403.245 403.421 403.365 402.32 403.457 400.636C403.696 396.551 403.797 389.089 401.7 386.213C398.746 382.154 385.02 389.38 385.02 389.38C385.02 389.38 378.755 395.022 375.259 396.505C371.763 397.988 370.76 396.987 370.254 399.472C370.171 399.89 370.098 400.282 370.033 400.636C369.871 401.557 369.776 402.487 369.748 403.421Z" fill="white" stroke="#263238" stroke-miterlimit="10"/>
<path d="M369.748 403.421H403.245C403.245 403.421 403.365 402.32 403.457 400.636H370.033C369.871 401.557 369.776 402.487 369.748 403.421Z" fill="white" stroke="#263238" stroke-miterlimit="10"/>
<path d="M380.678 264.882C380.678 264.882 377.669 285.239 378.672 294.639C379.675 304.04 381.174 336.7 383.171 350.022C385.167 363.344 386.621 384.238 386.621 384.238L385.02 385.421V389.38C385.02 389.38 391.819 390.963 394.616 391.354C396.511 391.627 400.08 391.991 402.206 392.201C402.402 392.219 402.599 392.192 402.782 392.121C402.966 392.05 403.129 391.937 403.26 391.792C403.391 391.646 403.485 391.472 403.536 391.284C403.586 391.096 403.59 390.898 403.549 390.708L402.629 386.213L401.58 380.844C401.58 380.844 407.174 346.555 406.18 340.622C405.186 334.688 401.681 320.847 401.681 319.364C401.681 317.881 406.64 292.164 407.661 287.714C408.682 283.264 412.666 271.398 412.666 264.964C412.666 258.531 380.678 264.882 380.678 264.882Z" fill="#263238" stroke="#263238" stroke-miterlimit="10"/>
<path d="M387.67 197.47C387.67 197.47 380.42 207.607 378.175 209.591C375.93 211.575 368.672 215.524 368.92 218.736C369.168 221.949 369.923 225.662 373.925 227.391C377.927 229.12 386.4 223.432 386.4 223.432L387.67 197.47Z" fill="white" stroke="#263238" stroke-miterlimit="10"/>
<path d="M376.667 210.328C376.667 210.328 379.169 216.762 379.427 219.228C379.684 221.694 379.933 225.907 377.927 227.636C376.004 229.19 373.656 230.141 371.183 230.366C369.684 230.366 369.178 220.475 368.929 218.746C368.681 217.017 367.181 213.286 368.681 211.575C370.181 209.864 374.67 209.591 376.667 210.328Z" fill="white" stroke="#263238" stroke-miterlimit="10"/>
<path d="M371.367 187.924C373.124 188.652 375.047 187.214 376.096 185.649C377.145 184.084 377.936 182.182 379.62 181.272C380.144 180.981 380.77 180.771 381.027 180.235C381.469 179.325 380.392 178.324 379.38 178.314C378.368 178.305 375.397 180.68 374.431 181.044C371.119 182.136 369.592 178.451 366.151 178.66C365.735 178.646 365.326 178.771 364.992 179.015C364.633 179.343 364.412 182.828 364.357 183.31C363.74 189.316 364.486 192.547 364.467 203.949C364.467 208.335 364.237 215.779 364.274 222.777C364.274 225.625 364.596 227.209 368.791 229.493C372.986 231.777 376.86 224.797 377.007 222.877C377.228 219.92 375.912 216.425 375.277 213.577C373.842 207.325 371.478 194.294 371.367 187.924Z" fill="white" stroke="#263238" stroke-miterlimit="10"/>
<path d="M373.078 177.868C373.078 177.868 373.253 177.595 373.538 177.231C374.173 176.403 375.378 175.038 376.298 175.084C377.632 175.147 381.726 177.932 380.77 179.133C379.813 180.334 376.4 177.695 376.4 177.695L374.201 181.69L370.834 181.217L373.078 177.868Z" fill="white" stroke="#263238" stroke-miterlimit="10"/>
<path d="M372.526 177.45C372.526 177.45 374.55 178.36 374.366 181.699C374.182 185.039 372.618 185.476 371.956 185.103C370.424 184.654 368.858 184.325 367.273 184.12C366.941 184.065 366.633 183.911 366.391 183.678C366.15 183.446 365.986 183.146 365.921 182.819C365.774 182.091 365.498 180.898 365.001 178.978C363.759 174.72 372.526 177.45 372.526 177.45Z" fill="white" stroke="#263238" stroke-miterlimit="10"/>
<path d="M371.073 177.259C371.576 178.415 371.842 179.659 371.856 180.918C371.871 182.177 371.632 183.426 371.156 184.593" stroke="#263238" stroke-miterlimit="10"/>
<path d="M367.954 176.713C367.954 176.713 369.546 181.317 368.331 184.184" stroke="#263238" stroke-miterlimit="10"/>
<path d="M370.171 186.35C370.171 186.35 370.061 186.868 368.552 187.742C367.043 188.616 365.387 187.423 365.084 187.36" stroke="#263238" stroke-miterlimit="10"/>
<path d="M400.973 171.508L401.635 183.683L388.406 191.873L384.661 175.603L395.241 152.853C395.241 152.853 398.185 151.115 400.54 156.11C402.896 161.106 400.347 166.075 400.347 166.075L400.973 171.508Z" fill="white" stroke="#263238" stroke-miterlimit="10"/>
<path d="M378.405 150.577L374.56 160.451L377.154 162.207C377.154 162.207 374.734 173.018 376.234 175.193C377.734 177.368 386.86 176.849 388.24 176.54C389.62 176.23 395.839 157.666 395.839 157.666C395.839 157.666 396.216 154.791 398.461 157.302C400.706 159.814 396.281 164.864 396.281 164.864L400.982 171.507C400.982 171.507 414.58 160.469 414 154.145C413.42 147.82 406.686 139.648 392.362 137.273C378.037 134.898 372.6 145.6 374.008 148.029C374.487 148.766 375.135 149.38 375.899 149.823C376.663 150.266 377.521 150.524 378.405 150.577Z" fill="#263238" stroke="#263238" stroke-miterlimit="10"/>
<path d="M378.718 166.248C380.374 166.675 380.282 170.288 380.282 170.288C379.49 170.53 378.637 170.478 377.881 170.142C377.204 169.824 376.568 169.427 375.986 168.959C376.124 167.804 376.308 166.648 376.492 165.62C377.2 165.838 378.028 166.066 378.718 166.248Z" fill="white" stroke="#263238" stroke-miterlimit="10"/>
<path d="M389.013 154.354C389.464 156.074 393.944 157.748 393.944 157.748L392.794 160.287C392.794 160.287 389.114 168.413 387.559 169.851C386.004 171.289 383.815 170.634 384.413 169.988C385.011 169.342 383.879 166.348 381.285 164.646C379.98 163.779 378.563 163.09 377.071 162.599C377.071 162.353 377.154 162.207 377.154 162.207L374.56 160.451L378.405 150.577L388.654 149.012C388.596 150.8 388.716 152.589 389.013 154.354Z" fill="white" stroke="#263238" stroke-miterlimit="10"/>
<path d="M379.96 156.647C379.804 157.63 379.96 158.467 380.383 158.54C380.806 158.613 381.193 157.839 381.303 156.857C381.414 155.874 381.303 155.037 380.88 154.964C380.457 154.891 380.126 155.655 379.96 156.647Z" fill="#263238"/>
<path d="M380.024 152.707C380.024 152.707 381.533 151.324 382.72 152.598C383.054 152.878 383.28 153.264 383.359 153.691C383.438 154.117 383.365 154.557 383.152 154.937" stroke="#263238" stroke-width="0.75" stroke-linecap="round" stroke-linejoin="round"/>
<path d="M400.568 179.889C400.568 179.889 410.43 189.225 412.16 194.321C413.89 199.417 416.153 243.789 415.242 251.26C414.331 258.731 413.338 267.877 413.338 267.877C413.338 267.877 410.798 270.752 404.8 271.18C379.316 273.082 380.632 264.874 380.632 264.874C380.632 264.874 380.779 212.203 381.625 206.115C382.472 200.027 389.712 188.288 392.95 185.376C395.329 183.338 397.877 181.503 400.568 179.889Z" fill="white" stroke="#263238" stroke-miterlimit="10"/>
<path d="M388.691 194.203L382.996 204.276C382.996 204.276 380.604 201.61 381.506 199.535C382.407 197.46 388.691 194.203 388.691 194.203Z" fill="#625AA8" stroke="#263238" stroke-linecap="round" stroke-linejoin="round"/>
<path d="M382.996 204.277L385.186 250.241L380.448 260.06L377.338 248.048L381.8 203.385L382.996 204.277Z" fill="#625AA8" stroke="#263238" stroke-linecap="round" stroke-linejoin="round"/>
<path d="M403.135 175.866L384.229 192.219L384.818 197.815L405.232 182.982L403.135 175.866Z" fill="white" stroke="#263238" stroke-miterlimit="10"/>
<path d="M406.116 238.029L382.784 277.304C382.784 277.304 379.279 286.086 378.424 286.322C377.568 286.559 372.471 287.16 372.471 287.16L369.895 288.161C369.895 288.161 368.175 288.916 367.945 287.787C367.715 286.659 369.408 278.114 370.263 277.878C371.119 277.641 376.979 275.148 376.979 275.148L393.3 232.96L406.116 238.029Z" fill="white" stroke="#263238" stroke-miterlimit="10"/>
<path d="M404.423 193.702C404.423 193.702 410.982 197.897 411.203 205.15C411.395 210.118 410.687 215.079 409.115 219.801C408.471 221.448 410.587 224.351 408.793 226.744C406.999 229.138 405.232 236.6 405.232 236.6L393.76 234.133C393.76 234.133 395.977 228.946 394.68 227.5C393.383 226.053 391.708 224.851 391.865 221.521C392.041 218.796 391.79 216.061 391.12 213.413C390.623 212.03 390.384 193.056 404.423 193.702Z" fill="white" stroke="#263238" stroke-miterlimit="10"/>
<path d="M408.195 233.406L405.968 238.866L392.049 235.69L393.493 228.792C393.493 228.792 405.508 230.776 408.195 233.406Z" fill="white" stroke="#263238" stroke-miterlimit="10"/>
<path d="M78.1172 189.18H192.492V315.615H78.1172V189.18Z" fill="#263238" stroke="#263238" stroke-linecap="round" stroke-linejoin="round"/>
<path d="M80.9048 183.192H197.082V312.466H80.9048V183.192Z" fill="white" stroke="#263238" stroke-linecap="round" stroke-linejoin="round"/>
<path d="M80.9048 183.192H170.954V312.466H80.9048V183.192Z" fill="white" stroke="#263238" stroke-linecap="round" stroke-linejoin="round"/>
<path d="M80.9048 183.192H197.082V191.901H80.9048V183.192Z" fill="#263238" stroke="#263238" stroke-miterlimit="10"/>
<path d="M143.106 196.305H165.94V223.851H143.106V196.305Z" fill="#625AA8" stroke="#263238" stroke-miterlimit="10"/>
<path d="M161.396 204.604C161.396 204.604 160.89 212.112 161.902 212.612C162.466 212.908 163.109 213.022 163.742 212.94C163.033 214.318 161.834 215.388 160.374 215.943C158.01 216.78 156.161 214.614 156.161 214.614L158.691 204.268L161.396 204.604Z" fill="#263238" stroke="#263238" stroke-linecap="round" stroke-linejoin="round"/>
<path d="M165.94 223.851L162.527 216.671L152.545 215.178L145.572 218.718L143.106 223.851H165.94Z" fill="white" stroke="#263238" stroke-linecap="round" stroke-linejoin="round"/>
<path d="M160.65 216.634L159.178 221.812L151.34 216.48L154.146 214.277L160.65 216.634Z" fill="white" stroke="#263238" stroke-linecap="round" stroke-linejoin="round"/>
<path d="M151.975 211.83L152.545 215.178L158.571 219.464L159.326 215.369L151.975 211.83Z" fill="white" stroke="#263238" stroke-linecap="round" stroke-linejoin="round"/>
<path d="M161.248 206.57C161.248 206.57 161.598 214.341 159.04 215.715C156.483 217.089 151.22 212.439 150.632 211.857C150.043 211.274 146.896 210.483 146.896 207.935C146.896 205.387 148.856 205.987 148.856 205.987C148.856 205.987 147.678 202.657 148.267 201.283C148.856 199.908 157.016 199.463 159.574 201C162.132 202.538 161.248 206.57 161.248 206.57Z" fill="white" stroke="#263238" stroke-linecap="round" stroke-linejoin="round"/>
<path d="M153.3 204.604C153.684 205.012 153.897 205.548 153.897 206.106C153.897 206.663 153.684 207.2 153.3 207.607C152.249 209.116 151.827 210.967 152.122 212.776C152.288 213.941 154.146 214.278 154.146 214.278C154.146 214.278 153.64 215.279 151.45 215.943C149.261 216.607 145.774 216.198 144.596 212.867C143.419 209.536 146.225 202.602 147.228 200.773C148.23 198.944 154.146 197.433 158.019 198.271C161.892 199.108 163.42 201.437 163.079 202.939C162.739 204.44 161.736 205.269 159.206 205.269C157.222 205.204 155.247 204.981 153.3 204.604Z" fill="#263238" stroke="#263238" stroke-linecap="round" stroke-linejoin="round"/>
<path d="M160.347 206.624C160.066 206.509 159.759 206.474 159.459 206.524C159.16 206.574 158.881 206.706 158.654 206.906" stroke="#263238" stroke-linecap="round" stroke-linejoin="round"/>
<path d="M158.571 208.29L159.114 210.91L157.421 210.728" stroke="#263238" stroke-linecap="round" stroke-linejoin="round"/>
<path d="M155.692 208.599C155.692 208.982 155.876 209.291 156.106 209.291C156.336 209.291 156.51 208.982 156.51 208.599C156.51 208.217 156.326 207.908 156.106 207.908C155.885 207.908 155.692 208.217 155.692 208.599Z" fill="#263238"/>
<path d="M159.215 208.271C159.215 208.654 159.39 208.963 159.62 208.963C159.85 208.963 160.025 208.654 160.025 208.271C160.025 207.889 159.85 207.589 159.62 207.589C159.39 207.589 159.215 207.898 159.215 208.271Z" fill="#263238"/>
<path d="M156.924 206.943C156.164 206.815 155.382 206.957 154.716 207.343" stroke="#263238" stroke-linecap="round" stroke-linejoin="round"/>
<path d="M159.16 213.013C158.572 213.145 157.962 213.155 157.37 213.042C156.778 212.929 156.216 212.696 155.719 212.357" stroke="#263238" stroke-linecap="round" stroke-linejoin="round"/>
<path d="M85.9832 196.114H137.54V206.169H85.9832V196.114Z" fill="white" stroke="#263238" stroke-linecap="round" stroke-linejoin="round"/>
<path d="M128.782 197.133L127.963 199.636H125.304L127.457 201.174L126.629 203.667L128.782 202.129L130.925 203.667L130.106 201.174L132.25 199.636H129.6L128.782 197.133Z" fill="#625AA8"/>
<path d="M119.545 197.133L118.726 199.636H116.067L118.22 201.174L117.401 203.667L119.545 202.129L121.688 203.667L120.87 201.174L123.013 199.636H120.364L119.545 197.133Z" fill="#625AA8"/>
<path d="M110.308 197.133L109.48 199.636H106.83L108.974 201.174L108.155 203.667L110.308 202.129L112.452 203.667L111.633 201.174L113.776 199.636H111.127L110.308 197.133Z" fill="#625AA8"/>
<path d="M101.071 197.133L100.243 199.636H97.5936L99.7372 201.174L98.9184 203.667L101.071 202.129L103.215 203.667L102.396 201.174L104.54 199.636H101.89L101.071 197.133Z" fill="#DBDBDB"/>
<path d="M91.8252 197.133L91.0064 199.636H88.3568L90.5004 201.174L89.6816 203.667L91.8252 202.129L93.978 203.667L93.1592 201.174L95.3028 199.636H92.644L91.8252 197.133Z" fill="#DBDBDB"/>
<path d="M85.9832 211.202H137.54V267.221H85.9832V211.202Z" fill="white" stroke="#263238" stroke-linecap="round" stroke-linejoin="round"/>
<path d="M85.9832 271.525H137.54V308.872H85.9832V271.525Z" fill="white" stroke="#263238" stroke-linecap="round" stroke-linejoin="round"/>
<path d="M165.03 230.831H144.983" stroke="#263238" stroke-linecap="round" stroke-linejoin="round"/>
<path d="M165.03 253.808H144.983" stroke="#263238" stroke-linecap="round" stroke-linejoin="round"/>
<path d="M194.893 229.848H174.855" stroke="#263238" stroke-linecap="round" stroke-linejoin="round"/>
<path d="M194.893 207.198H174.855" stroke="#263238" stroke-linecap="round" stroke-linejoin="round"/>
<path d="M194.893 199.326H174.855" stroke="#263238" stroke-linecap="round" stroke-linejoin="round"/>
<path d="M165.03 260.515H144.983" stroke="#263238" stroke-linecap="round" stroke-linejoin="round"/>
<path d="M165.03 267.221H144.983" stroke="#263238" stroke-linecap="round" stroke-linejoin="round"/>
<path d="M165.03 273.919H144.983" stroke="#263238" stroke-linecap="round" stroke-linejoin="round"/>
<path d="M165.03 280.625H144.983" stroke="#263238" stroke-linecap="round" stroke-linejoin="round"/>
<path d="M165.03 287.333H144.983" stroke="#263238" stroke-linecap="round" stroke-linejoin="round"/>
<path d="M165.03 294.03H144.983" stroke="#263238" stroke-linecap="round" stroke-linejoin="round"/>
<path d="M165.03 300.737H144.983" stroke="#263238" stroke-linecap="round" stroke-linejoin="round"/>
<path d="M165.03 233.533H151.763" stroke="#263238" stroke-linecap="round" stroke-linejoin="round"/>
<path d="M137.54 240.404H170.458V249.022H137.54V240.404Z" fill="#625AA8" stroke="#263238" stroke-linecap="round" stroke-linejoin="round"/>
<path d="M170.789 213.595H196.595V222.213H170.789V213.595Z" fill="#625AA8" stroke="#263238" stroke-linecap="round" stroke-linejoin="round"/>
<path d="M134.154 215.988H108.983" stroke="#263238" stroke-linecap="round" stroke-linejoin="round"/>
<path d="M134.154 279.188H108.983" stroke="#263238" stroke-linecap="round" stroke-linejoin="round"/>
<path d="M134.154 225.562H120.115" stroke="#263238" stroke-linecap="round" stroke-linejoin="round"/>
<path d="M134.154 232.268H120.115" stroke="#263238" stroke-linecap="round" stroke-linejoin="round"/>
<path d="M134.154 238.966H120.115" stroke="#263238" stroke-linecap="round" stroke-linejoin="round"/>
<path d="M134.154 245.672H120.115" stroke="#263238" stroke-linecap="round" stroke-linejoin="round"/>
<path d="M134.154 252.379H120.115" stroke="#263238" stroke-linecap="round" stroke-linejoin="round"/>
<path d="M134.154 259.077H120.115" stroke="#263238" stroke-linecap="round" stroke-linejoin="round"/>
<path d="M113.822 225.562H99.7832" stroke="#263238" stroke-linecap="round" stroke-linejoin="round"/>
<path d="M113.822 232.268H99.7832" stroke="#263238" stroke-linecap="round" stroke-linejoin="round"/>
<path d="M113.822 238.966H99.7832" stroke="#263238" stroke-linecap="round" stroke-linejoin="round"/>
<path d="M113.822 245.672H99.7832" stroke="#263238" stroke-linecap="round" stroke-linejoin="round"/>
<path d="M113.822 252.379H99.7832" stroke="#263238" stroke-linecap="round" stroke-linejoin="round"/>
<path d="M113.822 259.077H99.7832" stroke="#263238" stroke-linecap="round" stroke-linejoin="round"/>
<path d="M134.154 218.855H98.3296" stroke="#263238" stroke-linecap="round" stroke-linejoin="round"/>
<path d="M86.2316 283.975H137.54V286.85H86.2316V283.975Z" fill="#263238" stroke="#263238" stroke-linecap="round" stroke-linejoin="round"/>
<path d="M178.692 185.339V189.653" stroke="white" stroke-linecap="round" stroke-linejoin="round"/>
<path d="M151.423 185.339V189.653" stroke="white" stroke-linecap="round" stroke-linejoin="round"/>
<path d="M124.145 185.339V189.653" stroke="white" stroke-linecap="round" stroke-linejoin="round"/>
<path d="M96.876 185.339V189.653" stroke="white" stroke-linecap="round" stroke-linejoin="round"/>
<path d="M217.295 150.305H331.669V276.74H217.295V150.305Z" fill="#263238" stroke="#263238" stroke-linecap="round" stroke-linejoin="round"/>
<path d="M220.138 143.917H336.315V273.191H220.138V143.917Z" fill="white" stroke="#263238" stroke-linecap="round" stroke-linejoin="round"/>
<path d="M220.138 143.917H310.187V273.191H220.138V143.917Z" fill="white" stroke="#263238" stroke-linecap="round" stroke-linejoin="round"/>
<path d="M220.138 143.917H336.315V152.625H220.138V143.917Z" fill="#263238" stroke="#263238" stroke-miterlimit="10"/>
<path d="M282.339 157.039H305.173V184.584H282.339V157.039Z" fill="#625AA8" stroke="#263238" stroke-miterlimit="10"/>
<path d="M305.173 184.584L301.76 177.405L291.778 175.912L284.804 179.452L282.339 184.584H305.173Z" fill="white" stroke="#263238" stroke-linecap="round" stroke-linejoin="round"/>
<path d="M299.883 177.368L298.411 182.537L290.573 177.204L293.379 175.011L299.883 177.368Z" fill="white" stroke="#263238" stroke-linecap="round" stroke-linejoin="round"/>
<path d="M291.208 172.563L291.778 175.912L297.804 180.198L298.558 176.103L291.208 172.563Z" fill="#A1A1A1" stroke="#263238" stroke-linecap="round" stroke-linejoin="round"/>
<path d="M300.454 166.594C300.888 166.021 301.186 165.358 301.325 164.655C301.463 163.952 301.439 163.227 301.254 162.535C300.564 160.278 297.372 158.467 293.038 158.467C291.368 158.381 289.723 158.893 288.403 159.909C287.084 160.925 286.178 162.378 285.853 164C285.172 166.821 287.905 170.771 288.705 170.989C289.506 171.207 289.846 171.671 290.545 171.216C291.244 170.761 291.465 164.674 293.057 164.337C294.648 164 298.871 164.564 298.871 164.564L300.454 166.594Z" fill="#263238"/>
<path d="M300.481 167.285C300.481 167.285 300.831 175.057 298.273 176.385C295.716 177.714 290.453 173.119 289.864 172.527C289.276 171.936 287.454 172.036 287.454 169.488C287.454 166.94 290.076 168.132 290.076 168.132C290.076 168.132 291.815 167.558 292.017 166.785C292.22 166.011 290.913 164.892 291.217 164.191C291.806 162.817 295.725 160.815 298.282 162.371C300.84 163.928 300.481 167.285 300.481 167.285Z" fill="#A1A1A1" stroke="#263238" stroke-linecap="round" stroke-linejoin="round"/>
<path d="M299.58 167.358C299.3 167.242 298.993 167.206 298.694 167.255C298.394 167.303 298.115 167.433 297.887 167.631" stroke="#263238" stroke-linecap="round" stroke-linejoin="round"/>
<path d="M297.804 169.023L298.347 171.644L296.645 171.453" stroke="#263238" stroke-linecap="round" stroke-linejoin="round"/>
<path d="M294.924 169.333C294.924 169.715 295.108 170.015 295.338 170.015C295.568 170.015 295.743 169.715 295.743 169.333C295.743 168.951 295.559 168.641 295.338 168.641C295.118 168.641 294.924 168.951 294.924 169.333Z" fill="#263238"/>
<path d="M298.448 169.005C298.448 169.387 298.623 169.697 298.853 169.697C299.083 169.697 299.258 169.387 299.258 169.005C299.258 168.623 299.083 168.323 298.853 168.323C298.623 168.323 298.448 168.623 298.448 169.005Z" fill="#263238"/>
<path d="M296.157 167.677C295.397 167.549 294.615 167.691 293.949 168.077" stroke="#263238" stroke-linecap="round" stroke-linejoin="round"/>
<path d="M298.365 173.737C298.365 173.737 296.231 174.229 294.924 173.091" stroke="#263238" stroke-linecap="round" stroke-linejoin="round"/>
<path d="M225.216 156.848H276.773V166.903H225.216V156.848Z" fill="white" stroke="#263238" stroke-linecap="round" stroke-linejoin="round"/>
<path d="M270.728 158.376L269.91 160.87H267.26L269.404 162.417L268.585 164.91L270.728 163.363L272.872 164.91L272.053 162.417L274.197 160.87H271.547L270.728 158.376Z" fill="#625AA8"/>
<path d="M261.492 158.376L260.673 160.87H258.023L260.167 162.417L259.348 164.91L261.492 163.363L263.635 164.91L262.816 162.417L264.96 160.87H262.31L261.492 158.376Z" fill="#919191"/>
<path d="M252.255 158.376L251.436 160.87H248.786L250.93 162.417L250.111 164.91L252.255 163.363L254.398 164.91L253.58 162.417L255.723 160.87H253.074L252.255 158.376Z" fill="#919191"/>
<path d="M243.018 158.376L242.199 160.87H239.55L241.693 162.417L240.874 164.91L243.018 163.363L245.162 164.91L244.343 162.417L246.486 160.87H243.837L243.018 158.376Z" fill="#919191"/>
<path d="M233.781 158.376L232.962 160.87H230.313L232.456 162.417L231.638 164.91L233.781 163.363L235.925 164.91L235.106 162.417L237.25 160.87H234.6L233.781 158.376Z" fill="#919191"/>
<path d="M225.216 171.926H276.773V227.946H225.216V171.926Z" fill="white" stroke="#263238" stroke-linecap="round" stroke-linejoin="round"/>
<path d="M225.216 232.259H276.773V269.606H225.216V232.259Z" fill="white" stroke="#263238" stroke-linecap="round" stroke-linejoin="round"/>
<path d="M304.262 191.564H284.216" stroke="#263238" stroke-linecap="round" stroke-linejoin="round"/>
<path d="M304.262 214.542H284.216" stroke="#263238" stroke-linecap="round" stroke-linejoin="round"/>
<path d="M334.126 190.582H314.088" stroke="#263238" stroke-linecap="round" stroke-linejoin="round"/>
<path d="M334.126 167.932H314.088" stroke="#263238" stroke-linecap="round" stroke-linejoin="round"/>
<path d="M334.126 160.051H314.088" stroke="#263238" stroke-linecap="round" stroke-linejoin="round"/>
<path d="M304.262 221.249H284.216" stroke="#263238" stroke-linecap="round" stroke-linejoin="round"/>
<path d="M304.262 227.946H284.216" stroke="#263238" stroke-linecap="round" stroke-linejoin="round"/>
<path d="M304.262 234.653H284.216" stroke="#263238" stroke-linecap="round" stroke-linejoin="round"/>
<path d="M304.262 241.359H284.216" stroke="#263238" stroke-linecap="round" stroke-linejoin="round"/>
<path d="M304.262 248.057H284.216" stroke="#263238" stroke-linecap="round" stroke-linejoin="round"/>
<path d="M304.262 254.764H284.216" stroke="#263238" stroke-linecap="round" stroke-linejoin="round"/>
<path d="M304.262 261.47H284.216" stroke="#263238" stroke-linecap="round" stroke-linejoin="round"/>
<path d="M304.262 194.267H290.996" stroke="#263238" stroke-linecap="round" stroke-linejoin="round"/>
<path d="M276.773 201.137H309.69V209.755H276.773V201.137Z" fill="#625AA8" stroke="#263238" stroke-linecap="round" stroke-linejoin="round"/>
<path d="M310.022 174.32H335.828V182.938H310.022V174.32Z" fill="#625AA8" stroke="#263238" stroke-linecap="round" stroke-linejoin="round"/>
<path d="M273.387 176.713H248.216" stroke="#263238" stroke-linecap="round" stroke-linejoin="round"/>
<path d="M273.387 239.921H248.216" stroke="#263238" stroke-linecap="round" stroke-linejoin="round"/>
<path d="M273.387 186.295H259.348" stroke="#263238" stroke-linecap="round" stroke-linejoin="round"/>
<path d="M273.387 192.993H259.348" stroke="#263238" stroke-linecap="round" stroke-linejoin="round"/>
<path d="M273.387 199.7H259.348" stroke="#263238" stroke-linecap="round" stroke-linejoin="round"/>
<path d="M273.387 206.406H259.348" stroke="#263238" stroke-linecap="round" stroke-linejoin="round"/>
<path d="M273.387 213.104H259.348" stroke="#263238" stroke-linecap="round" stroke-linejoin="round"/>
<path d="M273.387 219.811H259.348" stroke="#263238" stroke-linecap="round" stroke-linejoin="round"/>
<path d="M253.055 186.295H239.016" stroke="#263238" stroke-linecap="round" stroke-linejoin="round"/>
<path d="M253.055 192.993H239.016" stroke="#263238" stroke-linecap="round" stroke-linejoin="round"/>
<path d="M253.055 199.7H239.016" stroke="#263238" stroke-linecap="round" stroke-linejoin="round"/>
<path d="M253.055 206.406H239.016" stroke="#263238" stroke-linecap="round" stroke-linejoin="round"/>
<path d="M253.055 213.104H239.016" stroke="#263238" stroke-linecap="round" stroke-linejoin="round"/>
<path d="M253.055 219.811H239.016" stroke="#263238" stroke-linecap="round" stroke-linejoin="round"/>
<path d="M273.387 179.588H237.562" stroke="#263238" stroke-linecap="round" stroke-linejoin="round"/>
<path d="M225.464 244.708H276.773V247.584H225.464V244.708Z" fill="#263238" stroke="#263238" stroke-linecap="round" stroke-linejoin="round"/>
<path d="M317.924 146.073V150.387" stroke="white" stroke-linecap="round" stroke-linejoin="round"/>
<path d="M290.656 146.073V150.387" stroke="white" stroke-linecap="round" stroke-linejoin="round"/>
<path d="M263.378 146.073V150.387" stroke="white" stroke-linecap="round" stroke-linejoin="round"/>
<path d="M236.109 146.073V150.387" stroke="white" stroke-linecap="round" stroke-linejoin="round"/>
<path d="M141.809 104.44H254.536V207.917H141.809V104.44Z" fill="#263238" stroke="#263238" stroke-linecap="round" stroke-linejoin="round"/>
<path d="M144.1 76.7583H260.277V206.033H144.1V76.7583Z" fill="white" stroke="#263238" stroke-linecap="round" stroke-linejoin="round"/>
<path d="M144.1 76.7583H234.149V206.033H144.1V76.7583Z" fill="white" stroke="#263238" stroke-linecap="round" stroke-linejoin="round"/>
<path d="M144.1 76.7583H260.277V85.467H144.1V76.7583Z" fill="#263238" stroke="#263238" stroke-miterlimit="10"/>
<path d="M206.301 89.8716H229.135V117.417H206.301V89.8716Z" fill="#625AA8" stroke="#263238" stroke-miterlimit="10"/>
<path d="M229.135 117.417L225.336 111.047L214.222 109.391L206.466 113.331L206.301 117.417H229.135Z" fill="#263238" stroke="#263238" stroke-linecap="round" stroke-linejoin="round"/>
<path d="M213.596 105.66L214.222 109.391L220.929 114.159L221.766 109.6L213.596 105.66Z" fill="white" stroke="#263238" stroke-linecap="round" stroke-linejoin="round"/>
<path d="M223.238 99.4356C223.238 99.4356 224.912 108.972 222.189 110.428C219.466 111.884 212.548 105.66 211.913 105.041C211.278 104.422 207.929 103.585 207.929 100.892C207.929 98.198 210.027 98.8168 210.027 98.8168C210.027 98.8168 208.776 95.2951 209.401 93.8391C210.027 92.3831 221.361 91.3548 224.075 93.011C226.789 94.6672 223.238 99.4356 223.238 99.4356Z" fill="white" stroke="#263238" stroke-linecap="round" stroke-linejoin="round"/>
<path d="M209.401 93.8392C210.027 92.3923 221.361 91.3549 224.075 93.0111C226.789 94.6673 223.238 99.4357 223.238 99.4357C223.238 99.4357 221.978 100.273 218.638 99.4357C215.298 98.5985 212.98 97.7795 212.98 97.7795C212.98 97.7795 215.74 100.892 214.452 101.101L213.192 101.301L212.768 103.585L210.008 98.8169C210.008 98.8169 208.776 95.2952 209.401 93.8392Z" fill="#263238" stroke="#263238" stroke-linecap="round" stroke-linejoin="round"/>
<path d="M220.929 101.72L221.858 106.088L219.972 105.888" stroke="#263238" stroke-linecap="round" stroke-linejoin="round"/>
<path d="M217.727 102.065C217.727 102.484 217.93 102.83 218.187 102.83C218.445 102.83 218.638 102.484 218.638 102.065C218.638 101.647 218.436 101.301 218.187 101.301C217.939 101.301 217.727 101.647 217.727 102.065Z" fill="#263238"/>
<path d="M221.646 101.701C221.646 102.129 221.849 102.475 222.097 102.475C222.346 102.475 222.548 102.129 222.548 101.701C222.548 101.274 222.346 100.937 222.097 100.937C221.849 100.937 221.646 101.283 221.646 101.701Z" fill="#263238"/>
<path d="M219.089 100.218C218.241 100.082 217.373 100.243 216.632 100.673" stroke="#263238" stroke-linecap="round" stroke-linejoin="round"/>
<path d="M221.554 106.97C221.554 106.97 219.181 107.516 217.727 106.251" stroke="#263238" stroke-linecap="round" stroke-linejoin="round"/>
<path d="M149.178 89.6802H200.735V99.7357H149.178V89.6802Z" fill="white" stroke="#263238" stroke-linecap="round" stroke-linejoin="round"/>
<path d="M193.384 91.1455L192.565 93.6389H189.916L192.059 95.1768L191.24 97.6702L193.384 96.1323L195.528 97.6702L194.709 95.1768L196.852 93.6389H194.203L193.384 91.1455Z" fill="#625AA8"/>
<path d="M184.147 91.1455L183.328 93.6389H180.679L182.822 95.1768L182.004 97.6702L184.147 96.1323L186.291 97.6702L185.472 95.1768L187.616 93.6389H184.966L184.147 91.1455Z" fill="#625AA8"/>
<path d="M174.91 91.1455L174.092 93.6389H171.442L173.586 95.1768L172.767 97.6702L174.91 96.1323L177.054 97.6702L176.235 95.1768L178.379 93.6389H175.729L174.91 91.1455Z" fill="#625AA8"/>
<path d="M165.674 91.1455L164.855 93.6389H162.205L164.349 95.1768L163.53 97.6702L165.674 96.1323L167.817 97.6702L166.998 95.1768L169.142 93.6389H166.492L165.674 91.1455Z" fill="#625AA8"/>
<path d="M156.437 91.1455L155.618 93.6389H152.959L155.112 95.1768L154.284 97.6702L156.437 96.1323L158.58 97.6702L157.762 95.1768L159.905 93.6389H157.256L156.437 91.1455Z" fill="#DBDBDB"/>
<path d="M149.178 104.768H200.735V160.788H149.178V104.768Z" fill="white" stroke="#263238" stroke-linecap="round" stroke-linejoin="round"/>
<path d="M149.178 165.101H200.735V202.447H149.178V165.101Z" fill="white" stroke="#263238" stroke-linecap="round" stroke-linejoin="round"/>
<path d="M228.215 124.397H208.178" stroke="#263238" stroke-linecap="round" stroke-linejoin="round"/>
<path d="M228.215 147.383H208.178" stroke="#263238" stroke-linecap="round" stroke-linejoin="round"/>
<path d="M258.088 123.414H238.041" stroke="#263238" stroke-linecap="round" stroke-linejoin="round"/>
<path d="M258.088 100.773H238.041" stroke="#263238" stroke-linecap="round" stroke-linejoin="round"/>
<path d="M258.088 92.8926H238.041" stroke="#263238" stroke-linecap="round" stroke-linejoin="round"/>
<path d="M228.215 154.081H208.178" stroke="#263238" stroke-linecap="round" stroke-linejoin="round"/>
<path d="M228.215 160.788H208.178" stroke="#263238" stroke-linecap="round" stroke-linejoin="round"/>
<path d="M228.215 167.495H208.178" stroke="#263238" stroke-linecap="round" stroke-linejoin="round"/>
<path d="M228.215 174.192H208.178" stroke="#263238" stroke-linecap="round" stroke-linejoin="round"/>
<path d="M228.215 180.899H208.178" stroke="#263238" stroke-linecap="round" stroke-linejoin="round"/>
<path d="M228.215 187.596H208.178" stroke="#263238" stroke-linecap="round" stroke-linejoin="round"/>
<path d="M228.215 194.303H208.178" stroke="#263238" stroke-linecap="round" stroke-linejoin="round"/>
<path d="M228.215 127.1H214.949" stroke="#263238" stroke-linecap="round" stroke-linejoin="round"/>
<path d="M200.735 133.97H233.652V142.588H200.735V133.97Z" fill="#625AA8" stroke="#263238" stroke-linecap="round" stroke-linejoin="round"/>
<path d="M233.984 107.162H259.79V115.779H233.984V107.162Z" fill="#625AA8" stroke="#263238" stroke-linecap="round" stroke-linejoin="round"/>
<path d="M197.34 109.555H172.169" stroke="#263238" stroke-linecap="round" stroke-linejoin="round"/>
<path d="M197.34 172.754H172.169" stroke="#263238" stroke-linecap="round" stroke-linejoin="round"/>
<path d="M197.34 119.128H183.31" stroke="#263238" stroke-linecap="round" stroke-linejoin="round"/>
<path d="M197.34 125.834H183.31" stroke="#263238" stroke-linecap="round" stroke-linejoin="round"/>
<path d="M197.34 132.542H183.31" stroke="#263238" stroke-linecap="round" stroke-linejoin="round"/>
<path d="M197.34 139.239H183.31" stroke="#263238" stroke-linecap="round" stroke-linejoin="round"/>
<path d="M197.34 145.946H183.31" stroke="#263238" stroke-linecap="round" stroke-linejoin="round"/>
<path d="M197.34 152.643H183.31" stroke="#263238" stroke-linecap="round" stroke-linejoin="round"/>
<path d="M177.017 119.128H162.978" stroke="#263238" stroke-linecap="round" stroke-linejoin="round"/>
<path d="M177.017 125.834H162.978" stroke="#263238" stroke-linecap="round" stroke-linejoin="round"/>
<path d="M177.017 132.542H162.978" stroke="#263238" stroke-linecap="round" stroke-linejoin="round"/>
<path d="M177.017 139.239H162.978" stroke="#263238" stroke-linecap="round" stroke-linejoin="round"/>
<path d="M177.017 145.946H162.978" stroke="#263238" stroke-linecap="round" stroke-linejoin="round"/>
<path d="M177.017 152.643H162.978" stroke="#263238" stroke-linecap="round" stroke-linejoin="round"/>
<path d="M197.34 112.43H161.524" stroke="#263238" stroke-linecap="round" stroke-linejoin="round"/>
<path d="M149.426 177.55H200.735V180.425H149.426V177.55Z" fill="#263238" stroke="#263238" stroke-linecap="round" stroke-linejoin="round"/>
<path d="M241.877 78.915V83.2193" stroke="white" stroke-linecap="round" stroke-linejoin="round"/>
<path d="M214.608 78.915V83.2193" stroke="white" stroke-linecap="round" stroke-linejoin="round"/>
<path d="M187.34 78.915V83.2193" stroke="white" stroke-linecap="round" stroke-linejoin="round"/>
<path d="M160.071 78.915V83.2193" stroke="white" stroke-linecap="round" stroke-linejoin="round"/>
</svg>
