<svg width="460" height="455" viewBox="0 0 460 455" fill="none" xmlns="http://www.w3.org/2000/svg">
<path d="M389.96 116.043C385.42 108.709 380.318 101.73 374.698 95.1676C343.703 59.0406 300.84 26.5991 251.795 25.4798C170.835 23.6598 108.606 107.535 90.7948 149.904C72.9836 192.274 15.2168 265.347 33.0004 311.329C50.784 357.311 159.298 410.519 235.787 419.528C312.276 428.537 362.075 399.69 393.208 356.41C415.104 325.962 420.615 282.464 421.305 245.891C422.151 200.891 413.687 154.29 389.96 116.043Z" fill="#625AA8"/>
<path opacity="0.7" d="M389.96 116.043C385.42 108.709 380.318 101.73 374.698 95.1676C343.703 59.0406 300.84 26.5991 251.795 25.4798C170.835 23.6598 108.606 107.535 90.7948 149.904C72.9836 192.274 15.2168 265.347 33.0004 311.329C50.784 357.311 159.298 410.519 235.787 419.528C312.276 428.537 362.075 399.69 393.208 356.41C415.104 325.962 420.615 282.464 421.305 245.891C422.151 200.891 413.687 154.29 389.96 116.043Z" fill="white"/>
<g opacity="0.2">
<path d="M300.132 38.2202H180.55V371.025H300.132V38.2202Z" stroke="#263238" stroke-miterlimit="10" stroke-linecap="round"/>
<path d="M181.185 48.3397H299.892L297.105 39.1851" stroke="#263238" stroke-miterlimit="10" stroke-linecap="round"/>
<path d="M181.185 59.4232H299.892L297.105 50.2686" stroke="#263238" stroke-miterlimit="10" stroke-linecap="round"/>
<path d="M181.185 70.498H299.892L297.105 61.3525" stroke="#263238" stroke-miterlimit="10" stroke-linecap="round"/>
<path d="M181.185 81.5819H299.892L297.105 72.4272" stroke="#263238" stroke-miterlimit="10" stroke-linecap="round"/>
<path d="M181.185 92.6562H299.892L297.105 83.5107" stroke="#263238" stroke-miterlimit="10" stroke-linecap="round"/>
<path d="M181.185 103.74H299.892L297.105 94.5947" stroke="#263238" stroke-miterlimit="10" stroke-linecap="round"/>
<path d="M181.185 114.824H299.892L297.105 105.669" stroke="#263238" stroke-miterlimit="10" stroke-linecap="round"/>
<path d="M181.185 125.899H299.892L297.105 116.753" stroke="#263238" stroke-miterlimit="10" stroke-linecap="round"/>
<path d="M181.185 136.983H299.892L297.105 127.828" stroke="#263238" stroke-miterlimit="10" stroke-linecap="round"/>
<path d="M181.185 148.057H299.892L297.105 138.912" stroke="#263238" stroke-miterlimit="10" stroke-linecap="round"/>
<path d="M181.185 159.141H299.892L297.105 149.996" stroke="#263238" stroke-miterlimit="10" stroke-linecap="round"/>
<path d="M181.185 170.225H299.892L297.105 161.07" stroke="#263238" stroke-miterlimit="10" stroke-linecap="round"/>
<path d="M181.185 181.299H299.892L297.105 172.154" stroke="#263238" stroke-miterlimit="10" stroke-linecap="round"/>
<path d="M181.185 192.383H299.892L297.105 183.229" stroke="#263238" stroke-miterlimit="10" stroke-linecap="round"/>
<path d="M181.185 203.458H299.892L297.105 194.312" stroke="#263238" stroke-miterlimit="10" stroke-linecap="round"/>
<path d="M181.185 214.542H299.892L297.105 205.396" stroke="#263238" stroke-miterlimit="10" stroke-linecap="round"/>
<path d="M181.185 225.626H299.892L297.105 216.471" stroke="#263238" stroke-miterlimit="10" stroke-linecap="round"/>
<path d="M181.185 236.7H299.892L297.105 227.555" stroke="#263238" stroke-miterlimit="10" stroke-linecap="round"/>
<path d="M181.185 247.784H299.892L297.105 238.639" stroke="#263238" stroke-miterlimit="10" stroke-linecap="round"/>
<path d="M181.185 258.859H299.892L297.105 249.713" stroke="#263238" stroke-miterlimit="10" stroke-linecap="round"/>
<path d="M181.185 269.942H299.892L297.105 260.797" stroke="#263238" stroke-miterlimit="10" stroke-linecap="round"/>
<path d="M181.185 281.027H299.892L297.105 271.872" stroke="#263238" stroke-miterlimit="10" stroke-linecap="round"/>
<path d="M181.185 292.101H299.892L297.105 282.956" stroke="#263238" stroke-miterlimit="10" stroke-linecap="round"/>
<path d="M181.185 303.185H299.892L297.105 294.04" stroke="#263238" stroke-miterlimit="10" stroke-linecap="round"/>
<path d="M181.185 314.269H299.892L297.105 305.114" stroke="#263238" stroke-miterlimit="10" stroke-linecap="round"/>
<path d="M181.185 325.343H299.892L297.105 316.198" stroke="#263238" stroke-miterlimit="10" stroke-linecap="round"/>
<path d="M181.185 336.427H299.892L297.105 327.272" stroke="#263238" stroke-miterlimit="10" stroke-linecap="round"/>
<path d="M181.185 347.502H299.892L297.105 338.356" stroke="#263238" stroke-miterlimit="10" stroke-linecap="round"/>
<path d="M181.185 358.586H299.892L297.105 349.44" stroke="#263238" stroke-miterlimit="10" stroke-linecap="round"/>
</g>
<g opacity="0.2">
<path d="M428.72 38.2202H309.138V371.025H428.72V38.2202Z" stroke="#263238" stroke-miterlimit="10" stroke-linecap="round"/>
<path d="M309.782 48.3397H428.481L425.693 39.1851" stroke="#263238" stroke-miterlimit="10" stroke-linecap="round"/>
<path d="M309.782 59.4232H428.481L425.693 50.2686" stroke="#263238" stroke-miterlimit="10" stroke-linecap="round"/>
<path d="M309.782 70.498H428.481L425.693 61.3525" stroke="#263238" stroke-miterlimit="10" stroke-linecap="round"/>
<path d="M309.782 81.5819H428.481L425.693 72.4272" stroke="#263238" stroke-miterlimit="10" stroke-linecap="round"/>
<path d="M309.782 92.6562H428.481L425.693 83.5107" stroke="#263238" stroke-miterlimit="10" stroke-linecap="round"/>
<path d="M309.782 103.74H428.481L425.693 94.5947" stroke="#263238" stroke-miterlimit="10" stroke-linecap="round"/>
<path d="M309.782 114.824H428.481L425.693 105.669" stroke="#263238" stroke-miterlimit="10" stroke-linecap="round"/>
<path d="M309.782 125.899H428.481L425.693 116.753" stroke="#263238" stroke-miterlimit="10" stroke-linecap="round"/>
<path d="M309.782 136.983H428.481L425.693 127.828" stroke="#263238" stroke-miterlimit="10" stroke-linecap="round"/>
<path d="M309.782 148.057H428.481L425.693 138.912" stroke="#263238" stroke-miterlimit="10" stroke-linecap="round"/>
<path d="M309.782 159.141H428.481L425.693 149.996" stroke="#263238" stroke-miterlimit="10" stroke-linecap="round"/>
<path d="M309.782 170.225H428.481L425.693 161.07" stroke="#263238" stroke-miterlimit="10" stroke-linecap="round"/>
<path d="M309.782 181.299H428.481L425.693 172.154" stroke="#263238" stroke-miterlimit="10" stroke-linecap="round"/>
<path d="M309.782 192.383H428.481L425.693 183.229" stroke="#263238" stroke-miterlimit="10" stroke-linecap="round"/>
<path d="M309.782 203.458H428.481L425.693 194.312" stroke="#263238" stroke-miterlimit="10" stroke-linecap="round"/>
<path d="M309.782 214.542H428.481L425.693 205.396" stroke="#263238" stroke-miterlimit="10" stroke-linecap="round"/>
<path d="M309.782 225.626H428.481L425.693 216.471" stroke="#263238" stroke-miterlimit="10" stroke-linecap="round"/>
<path d="M309.782 236.7H428.481L425.693 227.555" stroke="#263238" stroke-miterlimit="10" stroke-linecap="round"/>
<path d="M309.782 247.784H428.481L425.693 238.639" stroke="#263238" stroke-miterlimit="10" stroke-linecap="round"/>
<path d="M309.782 258.859H428.481L425.693 249.713" stroke="#263238" stroke-miterlimit="10" stroke-linecap="round"/>
<path d="M309.782 269.942H428.481L425.693 260.797" stroke="#263238" stroke-miterlimit="10" stroke-linecap="round"/>
<path d="M309.782 281.027H428.481L425.693 271.872" stroke="#263238" stroke-miterlimit="10" stroke-linecap="round"/>
<path d="M309.782 292.101H428.481L425.693 282.956" stroke="#263238" stroke-miterlimit="10" stroke-linecap="round"/>
<path d="M309.782 303.185H428.481L425.693 294.04" stroke="#263238" stroke-miterlimit="10" stroke-linecap="round"/>
<path d="M309.782 314.269H428.481L425.693 305.114" stroke="#263238" stroke-miterlimit="10" stroke-linecap="round"/>
<path d="M309.782 325.343H428.481L425.693 316.198" stroke="#263238" stroke-miterlimit="10" stroke-linecap="round"/>
<path d="M309.782 336.427H428.481L425.693 327.272" stroke="#263238" stroke-miterlimit="10" stroke-linecap="round"/>
<path d="M309.782 347.502H428.481L425.693 338.356" stroke="#263238" stroke-miterlimit="10" stroke-linecap="round"/>
<path d="M309.782 358.586H428.481L425.693 349.44" stroke="#263238" stroke-miterlimit="10" stroke-linecap="round"/>
</g>
<g opacity="0.2">
<path d="M139.84 20.9302H44.16V142.87H139.84V20.9302Z" stroke="#263238" stroke-miterlimit="10" stroke-linecap="round"/>
<path d="M132.48 30.3125H51.52V133.488H132.48V30.3125Z" stroke="#263238" stroke-miterlimit="10" stroke-linecap="round"/>
</g>
<path d="M427.8 384.93H435.16" stroke="#263238" stroke-miterlimit="10"/>
<path d="M21.16 384.93H419.824" stroke="#263238" stroke-miterlimit="10"/>
<path d="M388.424 49.3584H85.744V167.658H388.424V49.3584Z" fill="#D4D4D4"/>
<path d="M113.85 167.658H105.524" stroke="#263238" stroke-miterlimit="10"/>
<path d="M388.424 84.8027V167.658H119.582" stroke="#263238" stroke-miterlimit="10"/>
<path d="M99.7924 167.658H85.744V49.3584H388.424V77.5866" stroke="#263238" stroke-miterlimit="10"/>
<path d="M388.424 49.3584H85.744V61.1884H388.424V49.3584Z" fill="#263238" stroke="#263238" stroke-miterlimit="10"/>
<path d="M319.424 130.039H103.224V144.599H319.424V130.039Z" fill="white" stroke="#263238" stroke-miterlimit="10"/>
<path d="M375.461 132.414H326.444V150.669H375.461V132.414Z" fill="#263238"/>
<path d="M373.824 129.166H324.806V147.42H373.824V129.166Z" fill="#D4D4D4" stroke="#263238" stroke-miterlimit="10"/>
<path d="M341.798 136.427V137.11H340.98V136.382C340.98 135.699 340.704 135.281 340.06 135.281C339.416 135.281 339.14 135.699 339.14 136.382V140.395C339.14 141.087 339.425 141.496 340.06 141.496C340.694 141.496 340.98 141.087 340.98 140.395V139.412H341.798V140.322C341.798 141.469 341.246 142.233 340.06 142.233C338.873 142.233 338.339 141.469 338.339 140.322V136.391C338.339 135.235 338.882 134.48 340.06 134.48C341.237 134.48 341.798 135.272 341.798 136.427Z" fill="#263238"/>
<path d="M343.436 140.659L343.142 142.187H342.35L343.822 134.589H345.064L346.536 142.187H345.681L345.377 140.659H343.436ZM343.546 139.931H345.258L344.393 135.544L343.546 139.931Z" fill="#263238"/>
<path d="M347.962 142.187H347.19V134.589H348.275L350.06 140.049V134.589H350.814V142.187H349.894L347.935 136.045L347.962 142.187Z" fill="#263238"/>
<path d="M355.12 136.427V137.11H354.301V136.382C354.301 135.699 354.034 135.281 353.381 135.281C352.728 135.281 352.461 135.699 352.461 136.382V140.395C352.461 141.087 352.746 141.496 353.381 141.496C354.016 141.496 354.301 141.087 354.301 140.395V139.412H355.12V140.322C355.12 141.469 354.568 142.233 353.381 142.233C352.194 142.233 351.661 141.469 351.661 140.322V136.391C351.661 135.235 352.213 134.48 353.381 134.48C354.55 134.48 355.12 135.272 355.12 136.427Z" fill="#263238"/>
<path d="M358.588 137.956V138.711H356.748V141.441H359.058V142.215H355.856V134.589H359.021V135.362H356.712V137.956H358.588Z" fill="#263238"/>
<path d="M359.812 142.187V134.589H360.64V141.414H362.83V142.187H359.812Z" fill="#263238"/>
<path d="M164.298 75.2395L152.154 89.7852L170.485 104.758L182.628 90.2123L164.298 75.2395Z" fill="white" stroke="#263238" stroke-miterlimit="10"/>
<path d="M233.534 90.2073L245.678 104.753L264.008 89.7801L251.864 75.2344L233.534 90.2073Z" fill="white" stroke="#263238" stroke-miterlimit="10"/>
<path d="M206.102 67.0307L190.933 78.4648L205.342 97.1674L220.511 85.7333L206.102 67.0307Z" fill="white" stroke="#263238" stroke-miterlimit="10"/>
<path d="M123.924 101.774L123.004 99.6904H109.434L106.683 121.066H131.882L134.642 101.774H123.924Z" fill="#625AA8" stroke="#263238" stroke-miterlimit="10"/>
<path d="M122.738 86.1013L110.594 100.647L128.924 115.62L141.068 101.074L122.738 86.1013Z" fill="white" stroke="#263238" stroke-miterlimit="10"/>
<path d="M117.76 101.774L116.84 99.6904H103.27L106.196 121.066H131.394L128.478 101.774H117.76Z" fill="#625AA8" stroke="#263238" stroke-miterlimit="10"/>
<path d="M293.075 101.774L293.995 99.6904H307.565L310.325 121.066H285.117L282.366 101.774H293.075Z" fill="#625AA8" stroke="#263238" stroke-miterlimit="10"/>
<path d="M271.431 101.071L283.575 115.617L301.906 100.644L289.762 86.0982L271.431 101.071Z" fill="white" stroke="#263238" stroke-miterlimit="10"/>
<path d="M299.239 101.774L300.159 99.6904H313.729L310.813 121.066H285.605L288.53 101.774H299.239Z" fill="#625AA8" stroke="#263238" stroke-miterlimit="10"/>
<path d="M113.648 132.469H106.288V142.178H113.648V132.469Z" fill="#263238" stroke="#263238" stroke-miterlimit="10"/>
<path d="M123.464 132.469H116.104V142.178H123.464V132.469Z" fill="#263238" stroke="#263238" stroke-miterlimit="10"/>
<path d="M133.28 132.469H125.92V142.178H133.28V132.469Z" fill="#263238" stroke="#263238" stroke-miterlimit="10"/>
<path d="M143.088 132.469H135.728V142.178H143.088V132.469Z" fill="#263238" stroke="#263238" stroke-miterlimit="10"/>
<path d="M152.904 132.469H145.544V142.178H152.904V132.469Z" fill="#263238" stroke="#263238" stroke-miterlimit="10"/>
<path d="M162.72 132.469H155.36V142.178H162.72V132.469Z" fill="#263238" stroke="#263238" stroke-miterlimit="10"/>
<path d="M172.528 132.469H165.168V142.178H172.528V132.469Z" fill="#263238" stroke="#263238" stroke-miterlimit="10"/>
<path d="M182.344 132.469H174.984V142.178H182.344V132.469Z" fill="#263238" stroke="#263238" stroke-miterlimit="10"/>
<path d="M192.16 132.469H184.8V142.178H192.16V132.469Z" fill="#263238" stroke="#263238" stroke-miterlimit="10"/>
<path d="M201.968 132.469H194.608V142.178H201.968V132.469Z" fill="#263238" stroke="#263238" stroke-miterlimit="10"/>
<path d="M211.784 132.469H204.424V142.178H211.784V132.469Z" fill="#263238" stroke="#263238" stroke-miterlimit="10"/>
<path d="M221.6 132.469H214.24V142.178H221.6V132.469Z" fill="#263238" stroke="#263238" stroke-miterlimit="10"/>
<path d="M231.408 132.469H224.048V142.178H231.408V132.469Z" fill="#263238" stroke="#263238" stroke-miterlimit="10"/>
<path d="M241.224 132.469H233.864V142.178H241.224V132.469Z" fill="#263238" stroke="#263238" stroke-miterlimit="10"/>
<path d="M251.04 132.469H243.68V142.178H251.04V132.469Z" fill="#263238" stroke="#263238" stroke-miterlimit="10"/>
<path d="M385.397 50.7505H376.381V59.6685H385.397V50.7505Z" fill="#D4D4D4" stroke="#263238" stroke-miterlimit="10"/>
<path d="M384.321 52.9891L383.723 52.3066L380.972 54.6635L378.212 52.3066L377.614 52.9891L380.264 55.2641L377.614 57.5391L378.212 58.2307L380.972 55.8647L383.723 58.2307L384.321 57.5391L381.671 55.2641L384.321 52.9891Z" fill="#263238"/>
<path d="M397.569 204.149C397.569 204.149 383.125 196.214 382.048 214.159C380.972 232.104 378.304 349.167 378.304 349.167" stroke="#263238" stroke-width="2" stroke-miterlimit="10" stroke-linecap="round"/>
<path d="M374.55 215.797C374.55 215.797 386.336 241.732 380.99 347.584" stroke="#263238" stroke-width="2" stroke-miterlimit="10" stroke-linecap="round"/>
<path d="M386.124 207.771C386.124 207.771 380.604 211.275 377.458 207.271C374.311 203.267 379.583 195.914 374.937 192.774C370.291 189.635 362.268 194.431 362.268 194.431C362.268 194.431 368.442 196.251 368.248 199.563C368.055 202.875 365.074 204.113 364.679 202.702C364.283 201.292 361.33 193.894 356.316 196.951C354.866 197.795 353.605 198.922 352.609 200.262C351.612 201.603 350.902 203.13 350.52 204.75C350.52 204.75 362.195 203.521 362.903 207.862C363.612 212.203 358.11 207.107 353.289 206.825C348.468 206.543 344.089 207.243 344.393 210.128C344.505 212.679 344.354 215.234 343.942 217.754C343.942 217.754 348.018 214.168 353.317 214.478C358.616 214.787 358.423 218.118 353.602 217.845C348.781 217.572 344.65 222.104 344.65 222.104C344.65 222.104 349.039 229.529 354.623 233.197C360.208 236.864 362.213 235.553 362.903 232.723C363.593 229.893 362.057 222.631 365.424 222.832C368.791 223.032 359.84 235.417 364.145 236.145C368.451 236.873 371.91 235.644 373.051 232.842L374.182 230.039C374.182 230.039 372.683 222.759 373.336 219.947C373.989 217.135 374.78 220.029 375.544 223.423C376.308 226.817 376.786 234.971 378.258 234.58C379.73 234.188 384.44 228.21 385.544 225.917C386.648 223.623 379.344 216.471 379.426 215.042C379.509 213.613 385.149 216.334 386.032 217.772C386.666 218.891 387.24 220.043 387.752 221.221C387.752 221.221 391.267 219.037 391.184 212.339C391.101 205.642 386.124 207.771 386.124 207.771Z" fill="#625AA8"/>
<path opacity="0.3" d="M386.124 207.771C386.124 207.771 380.604 211.275 377.458 207.271C374.311 203.267 379.583 195.914 374.937 192.774C370.291 189.635 362.268 194.431 362.268 194.431C362.268 194.431 368.442 196.251 368.248 199.563C368.055 202.875 365.074 204.113 364.679 202.702C364.283 201.292 361.33 193.894 356.316 196.951C354.866 197.795 353.605 198.922 352.609 200.262C351.612 201.603 350.902 203.13 350.52 204.75C350.52 204.75 362.195 203.521 362.903 207.862C363.612 212.203 358.11 207.107 353.289 206.825C348.468 206.543 344.089 207.243 344.393 210.128C344.505 212.679 344.354 215.234 343.942 217.754C343.942 217.754 348.018 214.168 353.317 214.478C358.616 214.787 358.423 218.118 353.602 217.845C348.781 217.572 344.65 222.104 344.65 222.104C344.65 222.104 349.039 229.529 354.623 233.197C360.208 236.864 362.213 235.553 362.903 232.723C363.593 229.893 362.057 222.631 365.424 222.832C368.791 223.032 359.84 235.417 364.145 236.145C368.451 236.873 371.91 235.644 373.051 232.842L374.182 230.039C374.182 230.039 372.683 222.759 373.336 219.947C373.989 217.135 374.78 220.029 375.544 223.423C376.308 226.817 376.786 234.971 378.258 234.58C379.73 234.188 384.44 228.21 385.544 225.917C386.648 223.623 379.344 216.471 379.426 215.042C379.509 213.613 385.149 216.334 386.032 217.772C386.666 218.891 387.24 220.043 387.752 221.221C387.752 221.221 391.267 219.037 391.184 212.339C391.101 205.642 386.124 207.771 386.124 207.771Z" fill="#263238"/>
<path d="M358.11 223.478C361.716 219.073 367.025 213.113 371.478 210.265" stroke="#263238" stroke-miterlimit="10" stroke-linecap="round"/>
<path d="M353.933 228.847C353.933 228.847 354.853 227.573 356.353 225.671" stroke="#263238" stroke-miterlimit="10" stroke-linecap="round"/>
<path d="M373.824 211.356C373.824 211.356 379.178 218.846 380.172 226.553" stroke="#263238" stroke-miterlimit="10" stroke-linecap="round"/>
<path d="M367.761 215.788C367.761 215.788 369.26 214.923 368.681 224.451" stroke="#263238" stroke-miterlimit="10" stroke-linecap="round"/>
<path d="M371.68 206.934C371.68 206.934 374.744 204.204 373.134 198.89" stroke="#263238" stroke-miterlimit="10" stroke-linecap="round"/>
<path d="M367.54 211.475L365.35 207.516" stroke="#263238" stroke-miterlimit="10" stroke-linecap="round"/>
<path d="M362.94 215.506C362.94 215.506 356.003 210.319 351.67 210.046" stroke="#263238" stroke-miterlimit="10" stroke-linecap="round"/>
<path d="M405.821 193.657C405.821 193.657 405.6 201.51 399.381 201.892C393.162 202.275 389.344 192.055 382.996 194.512C376.648 196.969 376.032 208.162 376.032 208.162C376.032 208.162 382.058 203.267 385.305 205.742C388.553 208.217 387.789 212.021 386.041 211.42C384.293 210.82 374.854 208.69 374.532 215.779C374.401 217.786 374.683 219.798 375.361 221.694C376.04 223.59 377.1 225.33 378.479 226.808C378.479 226.808 385.186 214.414 390.062 216.671C394.938 218.928 386.032 220.902 382.462 225.48C378.893 230.057 376.611 234.88 379.748 236.545C382.886 238.211 387.108 242.187 387.108 242.187C387.108 242.187 386.262 235.699 390.181 230.667C394.1 225.634 397.348 228.1 393.778 232.678C390.209 237.255 391.984 244.453 391.984 244.453C391.984 244.453 402.5 245.163 410.026 242.142C417.551 239.121 417.579 236.227 415.159 233.651C412.74 231.076 404.368 227.609 406.879 224.406C409.391 221.203 415.84 238.529 419.52 234.78C423.2 231.031 424.304 226.754 422.28 223.714L420.219 220.684C420.219 220.684 411.847 217.226 409.428 214.651C407.008 212.075 410.495 213.277 414.451 214.833C418.407 216.389 426.99 221.467 427.598 219.738C428.205 218.009 425.371 209.3 423.77 206.57C422.17 203.84 409.97 206.279 408.59 205.214C407.21 204.149 413.798 200.427 415.895 200.573C417.464 200.702 419.024 200.915 420.569 201.21C420.569 201.21 420.753 196.241 413.908 191.755C407.063 187.269 405.821 193.657 405.821 193.657Z" fill="#625AA8"/>
<path opacity="0.2" d="M405.821 193.657C405.821 193.657 405.6 201.51 399.381 201.892C393.162 202.275 389.344 192.055 382.996 194.512C376.648 196.969 376.032 208.162 376.032 208.162C376.032 208.162 382.058 203.267 385.305 205.742C388.553 208.217 387.789 212.021 386.041 211.42C384.293 210.82 374.854 208.69 374.532 215.779C374.401 217.786 374.683 219.798 375.361 221.694C376.04 223.59 377.1 225.33 378.479 226.808C378.479 226.808 385.186 214.414 390.062 216.671C394.938 218.928 386.032 220.902 382.462 225.48C378.893 230.057 376.611 234.88 379.748 236.545C382.886 238.211 387.108 242.187 387.108 242.187C387.108 242.187 386.262 235.699 390.181 230.667C394.1 225.634 397.348 228.1 393.778 232.678C390.209 237.255 391.984 244.453 391.984 244.453C391.984 244.453 402.5 245.163 410.026 242.142C417.551 239.121 417.579 236.227 415.159 233.651C412.74 231.076 404.368 227.609 406.879 224.406C409.391 221.203 415.84 238.529 419.52 234.78C423.2 231.031 424.304 226.754 422.28 223.714L420.219 220.684C420.219 220.684 411.847 217.226 409.428 214.651C407.008 212.075 410.495 213.277 414.451 214.833C418.407 216.389 426.99 221.467 427.598 219.738C428.205 218.009 425.371 209.3 423.77 206.57C422.17 203.84 409.97 206.279 408.59 205.214C407.21 204.149 413.798 200.427 415.895 200.573C417.464 200.702 419.024 200.915 420.569 201.21C420.569 201.21 420.753 196.241 413.908 191.755C407.063 187.269 405.821 193.657 405.821 193.657Z" fill="#263238"/>
<path d="M402.629 232.105C400.623 225.534 398.204 216.207 398.36 209.864" stroke="#263238" stroke-miterlimit="10" stroke-linecap="round"/>
<path d="M405.205 239.894C405.205 239.894 404.552 238.074 403.641 235.344" stroke="#263238" stroke-miterlimit="10" stroke-linecap="round"/>
<path d="M401.065 208.28C401.065 208.28 412.289 208.071 420.771 212.348" stroke="#263238" stroke-miterlimit="10" stroke-linecap="round"/>
<path d="M401.414 217.299C401.414 217.299 401.562 215.224 410.817 222.277" stroke="#263238" stroke-miterlimit="10" stroke-linecap="round"/>
<path d="M395.122 207.389C395.122 207.389 394.478 202.529 387.964 200.473" stroke="#263238" stroke-miterlimit="10" stroke-linecap="round"/>
<path d="M396.888 214.578L391.405 214.05" stroke="#263238" stroke-miterlimit="10" stroke-linecap="round"/>
<path d="M397.845 221.876C397.845 221.876 387.863 225.216 384.652 229.338" stroke="#263238" stroke-miterlimit="10" stroke-linecap="round"/>
<path d="M339.25 245.964C339.25 245.964 370.815 266.603 370.282 346.519" stroke="#263238" stroke-width="2" stroke-miterlimit="10" stroke-linecap="round"/>
<path d="M378.166 240.513C378.166 240.513 377.163 249.558 369.969 249.422C362.774 249.285 359.324 237.128 351.771 239.412C344.218 241.696 342.433 254.536 342.433 254.536C342.433 254.536 349.848 249.449 353.354 252.607C356.859 255.764 355.626 260.078 353.676 259.222C351.725 258.367 341.016 255.073 339.968 263.181C339.629 265.486 339.765 267.835 340.368 270.087C340.97 272.339 342.026 274.447 343.473 276.285C343.473 276.285 352.397 262.635 357.816 265.665C363.234 268.696 352.756 270.161 348.202 275.111C343.648 280.061 340.547 285.421 344.006 287.624C347.466 289.826 352.02 294.831 352.02 294.831C352.02 294.831 351.661 287.269 356.666 281.827C361.67 276.385 365.176 279.534 360.622 284.484C356.068 289.434 357.429 297.897 357.429 297.897C357.429 297.897 369.49 299.717 378.46 296.915C387.43 294.112 387.752 290.799 385.204 287.596C382.656 284.393 373.327 279.625 376.51 276.158C379.693 272.69 385.48 293.238 390.08 289.234C394.68 285.23 396.364 280.407 394.275 276.713L392.178 273C392.178 273 382.849 268.222 380.3 265.019C377.752 261.816 381.662 263.536 386.078 265.702C390.494 267.867 399.878 274.529 400.798 272.599C401.718 270.67 399.252 260.351 397.661 257.129C396.069 253.908 381.772 255.51 380.273 254.154C378.773 252.798 386.713 249.112 389.151 249.476C390.945 249.778 392.723 250.17 394.478 250.65C394.478 250.65 395.168 244.935 387.697 239.121C380.227 233.306 378.166 240.513 378.166 240.513Z" fill="#625AA8"/>
<path opacity="0.3" d="M378.166 240.513C378.166 240.513 377.163 249.558 369.969 249.422C362.774 249.285 359.324 237.128 351.771 239.412C344.218 241.696 342.433 254.536 342.433 254.536C342.433 254.536 349.848 249.449 353.354 252.607C356.859 255.764 355.626 260.078 353.676 259.222C351.725 258.367 341.016 255.073 339.968 263.181C339.629 265.486 339.765 267.835 340.368 270.087C340.97 272.339 342.026 274.447 343.473 276.285C343.473 276.285 352.397 262.635 357.816 265.665C363.234 268.696 352.756 270.161 348.202 275.111C343.648 280.061 340.547 285.421 344.006 287.624C347.466 289.826 352.02 294.831 352.02 294.831C352.02 294.831 351.661 287.269 356.666 281.827C361.67 276.385 365.176 279.534 360.622 284.484C356.068 289.434 357.429 297.897 357.429 297.897C357.429 297.897 369.49 299.717 378.46 296.915C387.43 294.112 387.752 290.799 385.204 287.596C382.656 284.393 373.327 279.625 376.51 276.158C379.693 272.69 385.48 293.238 390.08 289.234C394.68 285.23 396.364 280.407 394.275 276.713L392.178 273C392.178 273 382.849 268.222 380.3 265.019C377.752 261.816 381.662 263.536 386.078 265.702C390.494 267.867 399.878 274.529 400.798 272.599C401.718 270.67 399.252 260.351 397.661 257.129C396.069 253.908 381.772 255.51 380.273 254.154C378.773 252.798 386.713 249.112 389.151 249.476C390.945 249.778 392.723 250.17 394.478 250.65C394.478 250.65 395.168 244.935 387.697 239.121C380.227 233.306 378.166 240.513 378.166 240.513Z" fill="#263238"/>
<path d="M370.815 284.584C369.122 276.813 367.227 265.829 368.009 258.513" stroke="#263238" stroke-miterlimit="10" stroke-linecap="round"/>
<path d="M373.051 293.821C373.051 293.821 372.462 291.701 371.68 288.361" stroke="#263238" stroke-miterlimit="10" stroke-linecap="round"/>
<path d="M371.284 256.938C371.284 256.938 384.256 257.757 393.631 263.481" stroke="#263238" stroke-miterlimit="10" stroke-linecap="round"/>
<path d="M370.824 267.385C370.824 267.385 371.192 265.001 381.202 274.01" stroke="#263238" stroke-miterlimit="10" stroke-linecap="round"/>
<path d="M364.504 255.364C364.504 255.364 364.237 249.686 356.905 246.719" stroke="#263238" stroke-miterlimit="10" stroke-linecap="round"/>
<path d="M365.866 263.827L359.591 262.699" stroke="#263238" stroke-miterlimit="10" stroke-linecap="round"/>
<path d="M366.27 272.335C366.27 272.335 354.439 275.257 350.336 279.716" stroke="#263238" stroke-miterlimit="10" stroke-linecap="round"/>
<path d="M351.55 308.945C351.55 308.945 371.882 324.297 374.026 347.056L369.748 270.843" stroke="#263238" stroke-width="2" stroke-miterlimit="10" stroke-linecap="round"/>
<path d="M400.78 297.834C374.026 293.065 374.026 347.056 374.026 347.056" stroke="#263238" stroke-width="2" stroke-miterlimit="10" stroke-linecap="round"/>
<path d="M377.2 346.519C377.2 346.519 361.68 234.853 406.64 234.853" stroke="#263238" stroke-width="2" stroke-miterlimit="10" stroke-linecap="round"/>
<path d="M390.586 294.621C386.906 290.554 379.16 290.554 374.596 300.946C370.033 311.338 374.136 309.527 374.136 309.527C374.136 309.527 382.821 306.797 388.304 304.977C393.788 303.157 401.092 298.653 401.543 301.337C401.994 304.022 397.863 306.797 392.868 307.707C387.872 308.617 374.596 312.257 375.967 314.933C377.338 317.608 380.567 325.78 380.567 325.78C384.455 322.512 388.554 319.499 392.84 316.762C398.783 313.122 402.436 314.505 399.28 318.582C396.124 322.658 386.952 327.172 388.774 332.596C390.595 338.019 401.562 344.79 401.562 344.79C401.562 344.79 402.932 333.497 406.162 329.884C409.391 326.271 409.363 330.33 408.443 336.663C407.985 339.353 407.678 342.066 407.523 344.79L420.311 349.34C420.311 349.34 424.911 342.56 427.165 340.303L429.447 338.047C429.447 338.047 419.364 329.42 418.904 323.96C418.444 318.5 425.758 323.96 428.039 324.87C430.321 325.78 433.982 332.095 433.982 332.095C433.982 332.095 436.264 321.703 436.742 318.09L437.193 314.45C437.193 314.45 427.607 310.81 423.945 310.81C420.284 310.81 418.425 313.54 418.425 309.9C418.425 306.26 422.105 304.031 426.19 304.44C430.275 304.85 437.147 307.17 437.147 307.17C437.147 307.17 439.907 304.913 438.987 298.134C438.067 291.354 435.786 291.354 430.312 293.165C424.838 294.976 421.176 299.035 417.064 299.035C412.951 299.035 415.224 294.066 417.984 292.665C420.744 291.263 427.579 288.597 428.95 288.115C430.321 287.633 421.636 281.335 417.073 280.435C412.51 279.534 406.585 282.709 407.017 287.205C407.946 296.878 394.238 298.689 390.586 294.621Z" fill="#625AA8"/>
<path d="M419.989 341.141C420.127 342.506 420.219 343.871 420.274 345.227" stroke="#263238" stroke-miterlimit="10" stroke-linecap="round"/>
<path d="M410.817 308.708C414.827 317.657 417.712 327.057 419.41 336.7" stroke="#263238" stroke-miterlimit="10" stroke-linecap="round"/>
<path d="M409.17 305.077C406.907 300.263 405.205 297.333 405.205 297.333C405.205 297.333 409.317 295.513 411.139 291.873C412.212 289.717 413.789 287.846 415.739 286.413" stroke="#263238" stroke-miterlimit="10" stroke-linecap="round"/>
<path d="M389.215 312.694C389.215 312.694 405.656 305.915 405.656 307.234" stroke="#263238" stroke-miterlimit="10" stroke-linecap="round"/>
<path d="M414.791 304.113C414.791 304.113 422.105 300.473 428.499 300.473" stroke="#263238" stroke-miterlimit="10" stroke-linecap="round"/>
<path d="M412.05 314.951C408.885 317.532 405.98 320.409 403.374 323.541C400.704 326.665 398.546 330.184 396.98 333.97" stroke="#263238" stroke-miterlimit="10" stroke-linecap="round"/>
<path d="M417.082 316.762C417.082 316.762 426.668 314.032 431.701 318.582" stroke="#263238" stroke-miterlimit="10" stroke-linecap="round"/>
<path d="M434.452 255.71C429.484 252.798 423.982 252.734 421.286 249.667C418.591 246.601 423.881 245.044 426.714 246.2C429.548 247.356 436.108 250.696 437.35 251.424C438.592 252.152 437.736 241.523 435.427 237.519C433.118 233.515 426.816 231.149 423.669 234.452C417.018 241.359 406.658 232.304 407.367 226.908C408.075 221.512 402.988 215.715 392.058 219.119C381.128 222.522 385.204 224.406 385.204 224.406C385.204 224.406 392.96 229.11 397.937 232.022C402.914 234.934 411.148 237.428 409.382 239.548C407.615 241.668 402.84 240.367 398.857 237.209C394.873 234.052 383.428 226.526 382.297 229.32C381.165 232.113 377.016 239.848 377.016 239.848C382.079 240.616 387.086 241.713 392.003 243.133C398.654 245.199 400.016 248.821 394.809 249.094C389.602 249.367 380.172 245.509 377.228 250.432C374.284 255.355 376.308 267.976 376.308 267.976C376.308 267.976 385.83 261.606 390.687 261.606C395.545 261.606 392.444 264.291 387.007 267.758C384.653 269.183 382.38 270.736 380.199 272.408L385.14 284.921C385.14 284.921 393.309 283.892 396.529 284.12L399.749 284.338C399.749 284.338 399.749 271.207 403.558 267.312C407.367 263.417 408.048 272.426 408.857 274.729C409.667 277.031 407.183 283.92 407.183 283.92C407.183 283.92 416.613 278.815 419.676 276.785L422.731 274.756C422.731 274.756 419.207 265.219 416.806 262.489C414.405 259.759 411.148 260.178 413.908 257.803C416.668 255.428 420.79 256.683 423.108 260.05C425.426 263.417 428.223 270.015 428.223 270.015C428.223 270.015 431.747 270.579 436.319 265.465C440.892 260.351 439.429 258.622 434.452 255.71ZM391.212 270.17C387.532 268.35 396.244 264.71 396.244 264.71C399.446 264.3 394.882 271.98 391.221 270.17H391.212ZM397.366 253.298C395.812 252.534 400.485 250.987 400.485 250.987C407.247 252.279 398.94 254.072 397.376 253.298H397.366Z" fill="#625AA8"/>
<path d="M391.129 279.37C390.209 280.362 389.197 281.327 388.194 282.255" stroke="#263238" stroke-miterlimit="10" stroke-linecap="round"/>
<path d="M409.878 251.26C405.674 260.121 400.387 268.44 394.137 276.03" stroke="#263238" stroke-miterlimit="10" stroke-linecap="round"/>
<path d="M411.562 247.647C413.761 242.806 414.883 239.612 414.883 239.612C414.883 239.612 418.959 241.496 422.915 240.522C425.247 239.918 427.691 239.871 430.045 240.385" stroke="#263238" stroke-miterlimit="10" stroke-linecap="round"/>
<path d="M392.674 237.737C392.674 237.737 408.627 245.582 407.588 246.464" stroke="#263238" stroke-miterlimit="10" stroke-linecap="round"/>
<path d="M415.996 251.214C415.996 251.214 423.55 254.308 427.736 259.086" stroke="#263238" stroke-miterlimit="10" stroke-linecap="round"/>
<path d="M405.922 256.274C401.878 255.601 397.777 255.318 393.677 255.428C389.553 255.469 385.46 256.154 381.552 257.457" stroke="#263238" stroke-miterlimit="10" stroke-linecap="round"/>
<path d="M407.836 261.215C407.836 261.215 416.19 266.603 416.033 273.318" stroke="#263238" stroke-miterlimit="10" stroke-linecap="round"/>
<path d="M363.474 318.318C359.472 315.979 355.046 315.924 352.875 313.449C350.704 310.974 354.964 309.727 357.245 310.665C359.527 311.602 364.798 314.305 365.801 314.869C366.804 315.433 366.114 306.897 364.256 303.676C362.397 300.454 357.328 298.58 354.789 301.21C349.444 306.77 341.099 299.481 341.67 295.14C342.24 290.799 338.146 286.131 329.351 288.87C320.556 291.609 323.831 293.12 323.831 293.12C323.831 293.12 330.068 296.915 334.07 299.253C338.072 301.592 344.706 303.603 343.27 305.305C341.835 307.006 338.008 305.969 334.797 303.43C331.586 300.891 322.386 294.831 321.439 297.06C320.491 299.29 317.188 305.523 317.188 305.523C321.264 306.141 325.293 307.026 329.25 308.171C334.604 309.827 335.69 312.721 331.513 312.967C327.336 313.213 319.728 310.082 317.363 314.041C314.999 317.999 316.618 328.164 316.618 328.164C316.618 328.164 324.282 323.032 328.192 323.041C332.102 323.05 329.599 325.206 325.229 327.991C323.323 329.139 321.48 330.388 319.709 331.731L323.684 341.805C326.734 341.399 329.806 341.183 332.884 341.159L335.478 341.341C335.478 341.341 335.478 330.767 338.542 327.636C341.605 324.506 342.157 331.749 342.81 333.606C343.464 335.462 341.504 340.986 341.504 340.986C341.504 340.986 349.094 336.873 351.55 335.244L354.016 333.615C354.016 333.615 351.173 325.934 349.241 323.741C347.309 321.548 344.687 321.876 346.904 319.974C349.122 318.072 352.424 319.064 354.338 321.794C355.919 324.355 357.294 327.036 358.45 329.811C358.45 329.811 361.284 330.275 364.973 326.171C368.662 322.067 367.476 320.656 363.474 318.318ZM328.679 329.957C325.744 328.501 332.727 325.589 332.727 325.589C335.303 325.225 331.623 331.413 328.679 329.957ZM333.638 316.379C332.378 315.761 336.14 314.559 336.14 314.559C341.578 315.551 334.88 316.998 333.638 316.379Z" fill="#625AA8"/>
<path d="M328.606 337.364C327.842 338.165 327.051 338.939 326.25 339.685" stroke="#263238" stroke-miterlimit="10" stroke-linecap="round"/>
<path d="M343.694 314.732C340.31 321.865 336.055 328.561 331.025 334.671" stroke="#263238" stroke-miterlimit="10" stroke-linecap="round"/>
<path d="M345.055 311.829C346.812 307.935 347.723 305.359 347.723 305.359C349.746 306.24 351.994 306.488 354.163 306.069C356.04 305.581 358.008 305.54 359.904 305.951" stroke="#263238" stroke-miterlimit="10" stroke-linecap="round"/>
<path d="M329.848 303.858C329.848 303.858 342.728 310.164 341.854 310.883" stroke="#263238" stroke-miterlimit="10" stroke-linecap="round"/>
<path d="M348.616 314.705C348.616 314.705 354.697 317.189 358.064 321.03" stroke="#263238" stroke-miterlimit="10" stroke-linecap="round"/>
<path d="M340.51 318.773C337.256 318.23 333.956 318.001 330.657 318.091C327.337 318.124 324.042 318.677 320.896 319.729" stroke="#263238" stroke-miterlimit="10" stroke-linecap="round"/>
<path d="M342.047 322.75C342.047 322.75 348.772 327.081 348.652 332.486" stroke="#263238" stroke-miterlimit="10" stroke-linecap="round"/>
<path d="M347.153 243.707C347.153 243.707 342.13 247.347 338.928 243.707C335.726 240.067 340.299 232.86 335.736 230.148C331.172 227.436 323.84 232.405 323.84 232.405C323.84 232.405 329.774 233.761 329.774 236.955C329.774 240.149 327.014 241.505 326.582 240.113C326.149 238.72 322.902 231.986 318.357 235.144C317.037 236.021 315.912 237.154 315.048 238.474C314.185 239.795 313.601 241.275 313.334 242.824C313.334 242.824 324.291 241.004 325.211 245.09C326.131 249.176 320.611 244.635 316.075 244.635C311.54 244.635 307.39 245.545 307.85 248.275C308.103 250.696 308.103 253.135 307.85 255.555C307.85 255.555 311.53 251.915 316.526 251.915C321.522 251.915 321.549 255.082 316.986 255.082C312.423 255.082 308.761 259.632 308.761 259.632C308.761 259.632 313.361 266.412 318.817 269.578C324.272 272.745 326.122 271.398 326.582 268.668C327.042 265.938 325.211 259.177 328.422 259.177C331.632 259.177 323.822 271.371 327.971 271.826C332.12 272.281 335.276 270.916 336.186 268.186L337.106 265.456C337.106 265.456 335.266 258.677 335.736 255.965C336.205 253.253 337.106 255.965 338.017 259.132C338.928 262.298 339.857 269.97 341.219 269.524C342.58 269.078 346.693 263.199 347.613 260.933C348.533 258.668 341.219 252.352 341.219 250.996C341.219 249.64 346.693 251.906 347.613 253.253C348.281 254.276 348.896 255.333 349.453 256.42C349.453 256.42 352.654 254.163 352.213 247.829C351.771 241.496 347.153 243.707 347.153 243.707Z" fill="#625AA8"/>
<path d="M321.568 260.096C324.723 255.728 329.406 249.804 333.445 246.865" stroke="#263238" stroke-miterlimit="10" stroke-linecap="round"/>
<path d="M317.915 265.392C317.915 265.392 318.725 264.137 320.031 262.253" stroke="#263238" stroke-miterlimit="10" stroke-linecap="round"/>
<path d="M335.736 247.766C335.736 247.766 341.256 254.545 342.59 261.78" stroke="#263238" stroke-miterlimit="10" stroke-linecap="round"/>
<path d="M330.28 252.288C330.28 252.288 331.651 251.378 331.651 260.424" stroke="#263238" stroke-miterlimit="10" stroke-linecap="round"/>
<path d="M333.445 243.707C333.445 243.707 336.205 240.977 334.365 236.026" stroke="#263238" stroke-miterlimit="10" stroke-linecap="round"/>
<path d="M329.792 248.221L327.511 244.608" stroke="#263238" stroke-miterlimit="10" stroke-linecap="round"/>
<path d="M325.68 252.288C325.68 252.288 318.835 247.738 314.723 247.738" stroke="#263238" stroke-miterlimit="10" stroke-linecap="round"/>
<path d="M393.291 344.936H357.972V395.213H393.291V344.936Z" fill="#263238" stroke="#263238" stroke-width="2" stroke-miterlimit="10" stroke-linecap="round"/>
<path d="M122.7 417.762C170.65 417.762 209.521 409.508 209.521 399.326C209.521 389.144 170.65 380.889 122.7 380.889C74.7508 380.889 35.88 389.144 35.88 399.326C35.88 409.508 74.7508 417.762 122.7 417.762Z" fill="#263238"/>
<path d="M95.726 252.707C95.726 252.707 97.566 261.443 97.7316 262.143C97.8972 262.844 71.3552 277.55 69.5888 278.905C67.8224 280.261 64.5288 281.117 64.6484 282.636C64.768 284.156 85.1276 328.136 86.664 337.018C88.2004 345.9 91.264 361.006 91.264 361.006L92.5612 370.206H159.077L158.958 319.783C158.958 319.783 161.046 269.633 160.798 268.468C160.549 267.303 158.801 266.484 158.442 266.366C158.084 266.247 128.22 262.143 124.338 261.088C122.99 260.715 121.761 260.005 120.77 259.026C119.779 258.048 119.059 256.833 118.68 255.5C118.33 254.217 109.857 251.423 104.199 250.723C98.5412 250.022 95.6064 251.423 95.726 252.707Z" fill="white" stroke="#263238" stroke-miterlimit="10"/>
<path d="M157.108 266.166C151.23 265.301 127.751 262.016 124.338 261.088C123.245 260.801 122.228 260.283 121.357 259.568L96.2596 263.208C90.7396 266.766 71.0976 277.686 69.5796 278.879C69.551 278.895 69.526 278.916 69.506 278.942L157.108 266.166Z" fill="#625AA8" stroke="#263238" stroke-miterlimit="10"/>
<path d="M158.958 323.66L85.974 334.325C86.2571 335.221 86.4875 336.132 86.664 337.055C87.1056 339.63 87.6852 342.733 88.274 345.845L158.985 335.508L158.958 323.66Z" fill="#625AA8" stroke="#263238" stroke-miterlimit="10"/>
<path d="M159.013 346.846L90.4268 356.856C90.9236 359.359 91.2548 360.997 91.2548 360.997L92.2944 368.404L159.04 358.649L159.013 346.846Z" fill="#625AA8" stroke="#263238" stroke-miterlimit="10"/>
<path d="M160.181 288.907C160.347 284.566 160.494 280.435 160.604 277.031L67.942 290.572C69.3036 293.712 70.9872 297.552 72.7904 301.683L160.181 288.907Z" fill="#625AA8" stroke="#263238" stroke-miterlimit="10"/>
<path d="M159.261 312.239C159.39 308.918 159.565 304.768 159.74 300.354L77.3904 312.385C79.0372 316.243 80.6196 320.056 81.9904 323.532L159.261 312.239Z" fill="#625AA8" stroke="#263238" stroke-miterlimit="10"/>
<path d="M87.6852 268.34C90.942 278.177 99.866 285.248 110.372 285.248C122.756 285.248 132.949 275.42 134.228 262.808C129.481 262.08 125.58 261.424 124.338 261.088C122.99 260.715 121.761 260.005 120.77 259.026C119.779 258.048 119.059 256.833 118.68 255.5C118.33 254.217 109.857 251.423 104.199 250.723C98.5412 250.022 95.6064 251.423 95.726 252.707C95.726 252.707 97.566 261.443 97.7316 262.143C97.7776 262.434 93.1776 265.164 87.6852 268.34Z" fill="#263238" stroke="#263238" stroke-miterlimit="10"/>
<path d="M191.406 355.246C191.406 355.246 168.268 361.679 162.969 362.635C157.67 363.59 150.19 364.064 150.19 364.064C150.19 364.064 93.3156 362.635 91.8712 362.389C90.4268 362.143 62.7072 349.758 62.7072 349.758C62.7072 349.758 116.214 393.12 121.992 395.768C127.77 398.416 138.626 394.339 145.13 390.526C151.634 386.713 191.406 355.246 191.406 355.246Z" fill="#263238" stroke="#263238" stroke-miterlimit="10"/>
<path d="M91.3744 266.193C92.7084 270.743 97.6856 282.373 113.096 279.515C125.368 277.24 129.738 268.431 131.293 262.434C128.055 261.87 125.424 261.379 124.338 261.088C122.99 260.715 121.761 260.005 120.77 259.026C119.779 258.048 119.059 256.833 118.68 255.5C118.33 254.217 109.857 251.423 104.199 250.723C98.5412 250.022 95.6064 251.423 95.726 252.707C95.726 252.707 97.566 261.443 97.7316 262.143C97.7684 262.362 95.0912 264.009 91.3744 266.193Z" fill="#D4D4D4" stroke="#263238" stroke-miterlimit="10"/>
<path d="M95.726 252.707L97.3084 260.078C101.264 261.77 107.861 264.055 111.467 262.362C114.323 260.93 116.934 259.063 119.204 256.829C118.986 256.404 118.81 255.959 118.68 255.5C118.625 255.291 118.349 255.036 117.898 254.763L114.798 254.509L101.2 250.541C97.52 250.577 95.68 251.679 95.726 252.707Z" fill="#263238" stroke="#263238" stroke-miterlimit="10"/>
<path d="M87.0228 199.044C87.0228 199.044 73.2872 207.361 74.4096 214.296C75.532 221.23 80.5736 234.78 80.5736 234.78C80.5736 234.78 75.532 229.793 75.256 235.89C74.98 241.987 79.7364 244.48 81.1348 244.48C82.1851 244.434 83.2245 244.251 84.226 243.934C84.226 243.934 91.2272 251.97 94.0332 253.034C96.8392 254.099 107.493 258.858 111.136 258.858C114.779 258.858 120.667 257.475 121.79 255.218C122.912 252.962 125.994 239.139 125.47 236.636C124.945 234.134 119.582 211.684 118.459 208.908C117.337 206.133 117.061 200.318 109.259 196.705C101.458 193.093 87.0228 199.044 87.0228 199.044Z" fill="#D4D4D4" stroke="#263238" stroke-miterlimit="10"/>
<path d="M109.176 196.823C101.32 193.183 87.0228 199.044 87.0228 199.044C87.0228 199.044 73.2872 207.361 74.4096 214.295C75.532 221.23 80.5736 234.78 80.5736 234.78C80.5736 234.78 83.1036 237.273 84.502 235.89C85.9004 234.507 80.822 228.127 80.822 228.127C80.822 228.127 81.098 225.625 81.098 222.859C81.098 220.092 79.6996 217.035 77.74 214.259C75.7804 211.484 81.42 202.893 85.5876 202.056C89.7552 201.219 95.956 202.611 99.3232 200.946C102.69 199.28 102.69 197.069 102.69 197.069C102.69 197.069 103.528 196.514 107.171 196.514C107.857 196.526 108.537 196.63 109.195 196.823H109.176Z" fill="#263238" stroke="#263238" stroke-miterlimit="10"/>
<path d="M102.608 220.138L85.5048 227.208C85.5048 227.208 86.8848 233.533 88.3476 234.861C89.8104 236.19 91.8068 237.227 96.5356 236.199C101.264 235.171 105.634 232.222 105.542 230.011C105.45 227.8 102.608 220.138 102.608 220.138Z" stroke="#263238" stroke-width="2" stroke-miterlimit="10" stroke-linecap="round"/>
<path d="M107.539 218.527L125.258 213.131C125.258 213.131 128.285 218.864 128.018 220.811C127.751 222.759 126.877 224.815 122.59 227.027C118.303 229.238 113.022 229.757 111.66 227.937C110.299 226.117 107.539 218.527 107.539 218.527Z" stroke="#263238" stroke-width="2" stroke-miterlimit="10" stroke-linecap="round"/>
<path d="M102.608 220.138C102.608 220.138 105.064 217.945 107.539 218.527" stroke="#263238" stroke-width="2" stroke-miterlimit="10" stroke-linecap="round"/>
<path d="M103.702 222.668C103.702 222.668 105.892 219.738 108.468 220.848" stroke="#263238" stroke-width="2" stroke-miterlimit="10" stroke-linecap="round"/>
<path d="M85.5048 227.208L80.1412 234.643" stroke="#263238" stroke-width="2" stroke-miterlimit="10" stroke-linecap="round"/>
<path d="M125.258 213.131L120.824 216.689" stroke="#263238" stroke-width="2" stroke-miterlimit="10" stroke-linecap="round"/>
<path d="M98.6148 226.999C99.2906 226.999 99.8384 226.457 99.8384 225.789C99.8384 225.12 99.2906 224.579 98.6148 224.579C97.939 224.579 97.3912 225.12 97.3912 225.789C97.3912 226.457 97.939 226.999 98.6148 226.999Z" fill="#263238"/>
<path d="M116.573 221.075C117.249 221.075 117.797 220.534 117.797 219.865C117.797 219.197 117.249 218.655 116.573 218.655C115.897 218.655 115.35 219.197 115.35 219.865C115.35 220.534 115.897 221.075 116.573 221.075Z" fill="#263238"/>
<path d="M97.6488 217.062C97.6488 217.062 91.6044 215.288 89.6724 221.521" stroke="#263238" stroke-width="2" stroke-miterlimit="10" stroke-linecap="round"/>
<path d="M109.37 215.288C109.37 215.288 110.658 211.593 117.088 213.377" stroke="#263238" stroke-width="2" stroke-miterlimit="10" stroke-linecap="round"/>
<path d="M109.627 225.343C109.627 225.343 111.559 229.42 113.105 230.057C114.65 230.694 118.376 231.877 116.444 233.242C114.512 234.607 110.4 236.682 108.597 236.682C108.097 236.697 107.603 236.574 107.171 236.327C106.738 236.079 106.385 235.717 106.15 235.28" stroke="#263238" stroke-miterlimit="10"/>
<path d="M114.393 241.004C111.747 242.54 108.695 243.251 105.634 243.043C100.611 242.66 99.7096 240.367 99.7096 240.367" stroke="#263238" stroke-miterlimit="10"/>
<path d="M100.74 239.221L98.164 241.641" stroke="#263238" stroke-miterlimit="10"/>
<path d="M52.1088 312.976C52.1088 312.976 45.1996 345.026 45.1996 346.437C45.1996 347.847 61.8792 352.334 64.9704 350.213C68.0616 348.093 74.7408 320.757 74.7408 320.757L52.1088 312.976Z" fill="#D4D4D4" stroke="#263238" stroke-miterlimit="10"/>
<path d="M50.462 320.675L73.2504 326.608C74.1704 323.168 74.7408 320.757 74.7408 320.757L52.1088 312.976C52.1088 312.976 51.4096 316.216 50.462 320.675Z" fill="#263238" stroke="#263238" stroke-miterlimit="10"/>
<path d="M64.6484 282.637L44.252 314.632L77.602 324.997L79.9848 318.163L64.6484 282.637Z" fill="#625AA8" stroke="#263238" stroke-miterlimit="10"/>
<path d="M158.608 317.216L167.661 343.616L192.197 340.076L181.47 304.495L158.608 317.216Z" fill="#D4D4D4" stroke="#263238" stroke-miterlimit="10"/>
<path d="M181.47 304.495L158.608 317.216L161.386 325.334L183.144 310.037L181.47 304.495Z" fill="#263238" stroke="#263238" stroke-miterlimit="10"/>
<path d="M160.798 268.468L186.953 303.084L158.948 319.783L160.798 268.468Z" fill="#625AA8" stroke="#263238" stroke-miterlimit="10"/>
<path d="M63.3052 329.475L100.952 359.168L90.7028 366.448C90.7028 366.448 46.8648 350.214 45.4388 347.62C44.0128 345.027 48.0608 335.362 48.0608 335.362" fill="#D4D4D4"/>
<path d="M63.3052 329.475L100.952 359.168L90.7028 366.448C90.7028 366.448 46.8648 350.214 45.4388 347.62C44.0128 345.027 48.0608 335.362 48.0608 335.362" stroke="#263238" stroke-miterlimit="10"/>
<path d="M105.892 358.085C107.367 359.05 108.904 359.919 110.492 360.688C111.191 360.824 113.822 365.756 114.926 366.302C116.03 366.848 117.567 368.122 116.766 368.777C115.966 369.433 114.549 370.415 113.583 370.142C112.617 369.869 110.529 367.267 109.839 366.439C108.659 365.354 107.408 364.348 106.094 363.427L105.892 358.085Z" fill="white" stroke="#263238" stroke-miterlimit="10"/>
<path d="M106.582 357.038C106.512 356.833 106.366 356.661 106.173 356.558C105.98 356.455 105.755 356.428 105.542 356.483C104.07 356.865 100.942 357.73 101.182 358.358C101.458 359.177 105.202 371.516 106.168 371.653C107.134 371.789 110.768 372.472 110.768 371.243C110.768 370.015 107.686 360.15 106.582 357.038Z" fill="white" stroke="#263238" stroke-miterlimit="10"/>
<path d="M101.2 358.358C101.2 358.358 97.3268 358.358 97.0416 359.723C96.7564 361.088 101.338 372.336 102.037 373.018C102.736 373.701 106.186 372.745 106.186 371.653C106.186 370.561 101.2 358.358 101.2 358.358Z" fill="white" stroke="#263238" stroke-miterlimit="10"/>
<path d="M97.0232 359.723C97.0232 359.723 93.012 360.551 93.012 361.643C93.012 362.735 97.1612 373.473 97.612 373.709C98.5394 373.883 99.4977 373.788 100.372 373.436C100.924 373.163 101.2 371.616 101.2 371.616L97.0232 359.723Z" fill="white" stroke="#263238" stroke-miterlimit="10"/>
<path d="M93.012 361.643C93.012 361.643 89.2676 364.255 89.9576 366.584C90.6476 368.914 92.4508 372.609 93.288 373.018C93.7804 373.127 94.2929 373.109 94.7762 372.965C95.2595 372.822 95.6975 372.558 96.048 372.199L96.186 371.79L96.048 371.107L93.012 361.643Z" fill="white" stroke="#263238" stroke-miterlimit="10"/>
<path d="M175.481 329.475L137.844 359.168L148.083 366.448C148.083 366.448 191.921 350.186 193.347 347.593C194.773 344.999 190.725 335.335 190.725 335.335" fill="#D4D4D4"/>
<path d="M175.481 329.475L137.844 359.168L148.083 366.448C148.083 366.448 191.921 350.186 193.347 347.593C194.773 344.999 190.725 335.335 190.725 335.335" stroke="#263238" stroke-miterlimit="10"/>
<path d="M132.894 358.085C131.419 359.05 129.882 359.919 128.294 360.688C127.604 360.824 124.964 365.756 123.86 366.302C122.756 366.848 121.228 368.122 122.02 368.777C122.811 369.433 124.237 370.415 125.212 370.142C126.187 369.869 128.257 367.267 128.947 366.439C130.129 365.356 131.38 364.35 132.692 363.427L132.894 358.085Z" fill="white" stroke="#263238" stroke-miterlimit="10"/>
<path d="M132.204 357.038C132.274 356.833 132.42 356.661 132.613 356.558C132.806 356.455 133.031 356.428 133.244 356.483C134.725 356.865 137.844 357.73 137.604 358.358C137.328 359.177 133.584 371.516 132.618 371.653C131.652 371.789 128.018 372.472 128.018 371.243C128.018 370.015 131.109 360.15 132.204 357.038Z" fill="white" stroke="#263238" stroke-miterlimit="10"/>
<path d="M137.604 358.358C137.604 358.358 141.487 358.358 141.763 359.723C142.039 361.088 137.466 372.336 136.776 373.018C136.086 373.701 132.618 372.745 132.618 371.653C132.618 370.561 137.604 358.358 137.604 358.358Z" fill="white" stroke="#263238" stroke-miterlimit="10"/>
<path d="M141.763 359.723C141.763 359.723 145.783 360.551 145.783 361.643C145.783 362.735 141.625 373.473 141.183 373.709C140.256 373.881 139.298 373.786 138.423 373.436C137.871 373.163 137.595 371.616 137.595 371.616L141.763 359.723Z" fill="white" stroke="#263238" stroke-miterlimit="10"/>
<path d="M145.783 361.643C145.783 361.643 149.518 364.255 148.828 366.584C148.138 368.914 146.335 372.609 145.507 373.018C145.015 373.126 144.503 373.108 144.019 372.964C143.536 372.821 143.098 372.557 142.747 372.199L142.609 371.79L142.747 371.107L145.783 361.643Z" fill="white" stroke="#263238" stroke-miterlimit="10"/>
<path d="M153.566 403.13C153.566 403.13 165.858 402.893 175.978 399.08C186.098 395.267 190.928 396.696 193.338 400.509C195.748 404.322 194.782 411.475 193.09 414.578C191.397 417.681 185.141 420.775 175.021 422.203C164.901 423.632 153.806 421.485 153.806 421.485L153.566 403.13Z" fill="white" stroke="#263238" stroke-miterlimit="10"/>
<path d="M182.086 420.811C188.076 419.191 191.848 416.898 193.126 414.605C194.819 411.502 195.785 404.349 193.375 400.536C191.296 397.26 187.441 395.75 179.97 397.806L180.357 398.143C180.357 398.143 188.554 395.759 189.998 400.764C191.443 405.769 189.998 414.35 187.11 416.98C185.513 418.353 183.836 419.633 182.086 420.811Z" fill="white" stroke="#263238" stroke-miterlimit="10"/>
<path d="M109.103 399.135C109.103 399.135 97.0232 401.382 86.3236 399.699C75.624 398.015 71.208 400.381 69.6348 404.604C68.0616 408.826 70.4812 415.633 72.7812 418.327C75.0812 421.02 81.8432 422.786 92.046 422.14C102.249 421.493 125.847 413.886 125.847 413.886L109.103 399.135Z" fill="white" stroke="#263238" stroke-miterlimit="10"/>
<path d="M102.856 404.413C102.856 404.413 110.004 410.537 107.143 415.251C106.127 416.914 105.025 418.524 103.84 420.074C114.282 417.617 125.847 413.886 125.847 413.886L114.512 403.876L111.909 403.448L102.856 404.413Z" fill="#263238" stroke="#263238" stroke-miterlimit="10"/>
<path d="M84.8332 422.176C78.6416 421.803 74.474 420.356 72.7812 418.327C70.4812 415.597 68.0616 408.827 69.6348 404.604C70.9872 400.964 74.4556 398.716 82.1928 399.226L81.88 399.636C81.88 399.636 73.37 398.962 72.9836 404.186C72.5972 409.409 75.7988 417.481 79.166 419.464C80.9982 420.48 82.8907 421.386 84.8332 422.176Z" fill="white" stroke="#263238" stroke-miterlimit="10"/>
<path d="M180.053 354.117C180.053 354.117 164.496 365.146 154.716 372.845C144.937 380.543 133.713 388.315 131.854 389.225C129.996 390.135 127.714 388.833 125.847 389.698C124.762 390.169 123.813 390.901 123.087 391.827C123.087 391.827 118.579 392.892 117.861 392.956C117.144 393.019 116.711 399.735 117.788 404.194C118.864 408.653 126.224 412.867 127.457 413.249C128.69 413.631 142.83 408.935 154.293 404.212C165.756 399.49 196.3 382.272 202.225 377.741C208.15 373.209 210.1 370.461 207.92 361.27C205.74 352.079 199.64 348.53 194.322 348.466C189.005 348.402 180.053 354.117 180.053 354.117Z" fill="#625AA8" stroke="#263238" stroke-miterlimit="10"/>
<path d="M129.462 394.812C129.462 394.812 111.246 386.932 97.5844 373.709C83.9224 360.487 66.0836 348.53 59.8 348.093C53.5164 347.656 46.5428 353.335 41.722 360.251C36.9012 367.167 45.2272 379.288 51.52 383.346C57.8128 387.405 85.3852 399.344 99.6084 404.822C113.832 410.301 134.798 418.654 137.926 419.128C141.054 419.601 150.466 423.678 152.646 423.678C154.827 423.678 156.023 421.53 156.262 419.628C156.501 417.726 155.784 406.033 155.784 404.158C155.822 403.73 155.77 403.298 155.629 402.892C155.488 402.485 155.263 402.112 154.967 401.797C154.671 401.482 154.312 401.232 153.912 401.064C153.512 400.895 153.081 400.812 152.646 400.818C150.724 400.818 148.046 402.247 147.347 402.247C146.648 402.247 144.458 398.198 142.747 398.198C141.036 398.198 139.38 398.916 138.892 397.724C138.405 396.532 133.805 394.103 129.462 394.812Z" fill="#625AA8" stroke="#263238" stroke-miterlimit="10"/>
<path d="M167.182 316.752H78.0804V373.782H167.182V316.752Z" fill="white" stroke="#263238" stroke-miterlimit="10"/>
<path d="M167.182 316.752H78.0804V370.151H167.182V316.752Z" fill="white" stroke="#263238" stroke-miterlimit="10"/>
<path d="M167.182 318.882C145.415 323.532 134.688 341.714 114.871 353.243C97.8052 363.172 83.9868 367.667 78.0712 369.305V370.142H167.173L167.182 318.882Z" fill="#263238" stroke="#263238" stroke-miterlimit="10"/>
<path d="M127.024 343.443C127.024 342.583 126.766 341.742 126.283 341.026C125.8 340.311 125.113 339.754 124.31 339.424C123.506 339.095 122.622 339.009 121.769 339.177C120.916 339.345 120.132 339.759 119.517 340.367C118.902 340.976 118.483 341.751 118.314 342.594C118.144 343.438 118.231 344.313 118.564 345.108C118.897 345.902 119.46 346.582 120.184 347.06C120.907 347.538 121.757 347.793 122.627 347.793C123.793 347.793 124.912 347.335 125.736 346.519C126.561 345.703 127.024 344.597 127.024 343.443Z" fill="white" stroke="#263238" stroke-miterlimit="10"/>
</svg>
