<svg width="320" height="452" viewBox="0 0 320 452" fill="none" xmlns="http://www.w3.org/2000/svg">
<rect width="320" height="452" fill="white"/>
<path fill-rule="evenodd" clip-rule="evenodd" d="M79.3299 31.215C79.0349 31.985 78.9339 34.579 79.1059 36.98L79.4189 41.344H110.919H142.419V35.844V30.344L111.143 30.08C85.0819 29.86 79.7779 30.049 79.3299 31.215ZM151.329 31.218C151.034 31.986 150.934 34.579 151.106 36.98L151.419 41.344H190.919H230.419V35.844V30.344L191.142 30.082C158.261 29.863 151.778 30.048 151.329 31.218ZM115.313 51.26C115.009 52.051 114.909 53.744 115.09 55.021L115.419 57.344H154.919H194.419V53.844V50.344L155.142 50.082C121.723 49.86 115.783 50.035 115.313 51.26ZM27.3159 91.253C27.0099 92.048 26.9089 93.744 27.0899 95.021L27.4189 97.344H50.9189H74.4189V93.844V90.344L51.1449 90.076C31.5919 89.85 27.7819 90.038 27.3159 91.253ZM251.319 91.245C251.012 92.045 250.909 93.744 251.09 95.021C251.418 97.338 251.462 97.344 266.919 97.344H282.419V93.844V90.344L267.148 90.068C254.533 89.84 251.779 90.044 251.319 91.245ZM27.3099 143.267C27.0079 144.055 26.9089 145.744 27.0899 147.021L27.4189 149.344H154.919H282.419V145.844V142.344L155.139 142.09C45.483 141.872 27.7829 142.035 27.3099 143.267ZM27.3099 159.267C27.0079 160.054 26.9089 161.744 27.0899 163.021L27.4189 165.344H146.919H266.419V161.844V158.344L147.139 158.09C44.4139 157.871 27.7829 158.035 27.3099 159.267ZM27.3099 175.267C27.0079 176.055 26.9089 177.744 27.0899 179.021L27.4189 181.344H154.919H282.419V177.844V174.344L155.139 174.09C45.483 173.872 27.7829 174.035 27.3099 175.267ZM27.3099 191.267C27.0079 192.055 26.9089 193.744 27.0899 195.021L27.4189 197.344H150.919H274.419V193.844V190.344L151.139 190.09C44.9489 189.871 27.7829 190.035 27.3099 191.267ZM27.3099 207.267C27.0079 208.055 26.9089 209.744 27.0899 211.021L27.4189 213.344H154.919H282.419V209.844V206.344L155.139 206.09C45.483 205.872 27.7829 206.035 27.3099 207.267ZM27.3099 223.267C27.0079 224.055 26.9089 225.744 27.0899 227.021L27.4189 229.344H154.919H282.419V225.844V222.344L155.139 222.09C45.483 221.872 27.7829 222.035 27.3099 223.267ZM27.3099 239.267C27.0079 240.055 26.9089 241.744 27.0899 243.021L27.4189 245.344H150.919H274.419V241.844V238.344L151.139 238.09C44.9489 237.871 27.7829 238.035 27.3099 239.267ZM26.982 256.421C26.679 257.21 26.58 258.9 26.761 260.177L27.09 262.5H108.59H190.09V259V255.5L108.811 255.244C39.004 255.024 27.454 255.191 26.982 256.421Z" fill="#625AA8" fill-opacity="0.3"/>
</svg>
