<svg width="1271" height="2459" viewBox="0 0 1271 2459" fill="none" xmlns="http://www.w3.org/2000/svg">
<path fill-rule="evenodd" clip-rule="evenodd" d="M363.203 0.243753C360.041 0.466664 357.454 0.988456 357.454 1.40329C357.454 1.81912 383.284 1.96407 414.855 1.72616C485.746 1.19138 514.148 2.82972 568.927 10.6126C761.056 37.9117 933.389 122.405 1069.22 255.903C1116.34 302.221 1154.52 349.548 1178.7 391.635C1188.5 408.682 1203.14 438.646 1204.95 445.371C1207.52 454.869 1207.31 470.594 1204.49 480.857C1191.05 529.619 1130.68 579.968 1012.37 641.086C947.958 674.361 876.433 705.573 716.408 770.24C557.72 834.367 522.179 849.493 444.277 886.053C296.907 955.214 232.015 987.767 183.476 1016.88C114.153 1058.47 69.739 1095.49 25.4797 1148.59C10.4866 1166.58 5.20733 1175.17 2.40169 1186.16C0.259967 1194.55 0 1197.73 0 1215.56V1235.56L3.8665 1245.05C13.5143 1268.75 26.3516 1291.66 40.6488 1310.7C128.605 1427.85 304.862 1516.87 547.85 1566.88C626.588 1583.08 705.011 1594.23 801.397 1602.92C851.464 1607.44 881.411 1611.49 913.382 1618.05C1025.98 1641.18 1120.82 1685.24 1187.22 1745.24C1243.23 1795.86 1273.53 1858.96 1268.38 1914.29C1266.37 1935.9 1261.99 1951.45 1252.65 1970.17C1227.83 2019.93 1173.31 2078.18 1096.86 2136.6C996.166 2213.55 854.717 2293.76 697.41 2363.12C590.258 2410.36 486.315 2447.21 436.444 2455.65C429.57 2456.81 423.72 2458 423.445 2458.29C421.957 2459.87 443.574 2457.4 454.627 2454.72C558.947 2429.46 747.222 2349.98 895.385 2268.65C1065.16 2175.46 1184.35 2081.28 1240.91 1995.64C1253.68 1976.3 1262.74 1956.29 1268.01 1935.78C1270.36 1926.63 1270.44 1925.3 1270.05 1899.79C1269.66 1873.87 1269.58 1873.07 1266.58 1862.31C1255.39 1822.24 1235.86 1790.61 1200.31 1754.94C1167.98 1722.5 1135.3 1699.16 1089.27 1675.64C1034.88 1647.85 975.925 1627.76 911.383 1615.02C875.292 1607.9 852.092 1604.8 801.897 1600.41C632.37 1585.57 475.391 1554.41 355.716 1511.85C258.475 1477.26 181.887 1436.91 119.135 1387.21C96.5906 1369.35 64.9616 1337.93 49.1427 1317.68C27.2365 1289.63 7.30206 1252.77 2.95662 1232.27C0.170978 1219.13 1.68978 1197.38 6.47317 1181.9C10.2647 1169.63 31.5909 1142.79 60.3952 1114.04C102.39 1072.12 147.996 1039.06 216.472 1000.91C253.085 980.502 328.44 943.443 435.944 892.969C523.855 851.695 550.152 840.406 690.695 783.62C873.455 709.775 920.739 689.379 994.372 652.625C1050.2 624.758 1076.75 609.84 1109.86 587.746C1168.02 548.926 1200.94 511.889 1207.89 477.453C1210.35 465.28 1209.53 450.375 1205.85 440.373C1199.76 423.839 1179.98 387.196 1165.18 365.042C1129.35 311.408 1069.31 247.169 1010.69 199.747C877 91.5946 707.952 23.3553 541.5 5.5C492.5 0.243769 509.5 0.470512 437 0.243769C399.605 0.126816 366.366 0.0218414 363.203 0.243753Z" fill="#A6A6A6"/>
</svg>
